<?xml version="1.0" encoding="utf-8"?>
<svg version="1.1" xmlns:xlink="http://www.w3.org/1999/xlink" width="40px" height="31px" xmlns="http://www.w3.org/2000/svg">
  <g transform="matrix(1 0 0 1 -802 -405 )">
    <path d="M 36.9308035714286 27.97265625  C 37.0721726190476 27.8332149621212  37.1428571428571 27.6680871212121  37 27.4772727272727  L 37 10.5681818181818  C 36.6666666666667 11.0965909090909  36.1532738095238 11.5809659090909  35.6026785714286 12.0213068181818  C 31.6145833333333 15.0449810606061  28.4449404761905 17.5255681818182  26.09375 19.4630681818182  C 25.3348214285714 20.0942234848485  24.7172619047619 20.5859375  24.2410714285714 20.9382102272727  C 23.764880952381 21.2904829545455  23.1212797619048 21.6464251893939  22.3102678571429 22.0060369318182  C 21.499255952381 22.3656486742424  20.7366071428571 22.5454545454545  20.0223214285714 22.5454545454545  L 20 22.5454545454545  L 19.9776785714286 22.5454545454545  C 19.2633928571429 22.5454545454545  18.500744047619 22.3656486742424  17.6897321428571 22.0060369318182  C 16.8787202380952 21.6464251893939  16.235119047619 21.2904829545455  15.7589285714286 20.9382102272727  C 15.2827380952381 20.5859375  14.6651785714286 20.0942234848485  13.90625 19.4630681818182  C 11.5550595238095 17.5255681818182  8.38541666666667 15.0449810606061  4.39732142857143 12.0213068181818  C 3.84672619047619 11.5809659090909  3.33333333333333 11.0965909090909  3 10.5681818181818  L 3 27.4772727272727  C 2.85714285714286 27.6680871212121  2.92782738095238 27.8332149621212  3.06919642857143 27.97265625  C 3.21056547619048 28.1120975378788  3.37797619047619 28.1818181818182  3.57142857142857 28  L 36.4285714285714 28  C 36.6220238095238 28.1818181818182  36.7894345238095 28.1120975378788  36.9308035714286 27.97265625  Z M 36.1049107142857 7.23259943181818  C 36.796875 6.16844223484848  37.1428571428571 5.20336174242424  37.1428571428571 4.33735795454545  L 37.1428571428571 4.09517045454545  L 37.1428571428571 3.79794034090909  C 37.1428571428571 3.79794034090909  37.1391369047619 3.70253314393939  37.1316964285714 3.51171875  C 37.124255952381 3.3209043560606  37.1019345238095 3.22916666666666  37.0647321428571 3.23650568181818  C 37.0275297619048 3.2438446969697  36.9866071428571 3.17779356060606  36.9419642857143 3.03835227272727  C 36.8973214285714 2.89891098484848  36.8303571428571 2.84386837121212  36.7410714285714 2.87322443181818  C 36.6517857142857 2.90258049242424  36.5476190476191 2.88423295454545  36.4285714285714 3  L 3.57142857142857 3  C 3.37797619047619 2.81818181818182  3.21056547619048 2.88790246212121  3.06919642857143 3.02734375  C 2.92782738095238 3.16678503787879  2.85714285714286 3.33191287878788  2.85714285714286 3.52272727272727  C 2.85714285714286 5.98863636363637  3.95089285714286 8.07291666666666  6.13839285714286 9.77556818181818  C 9.01041666666667 12.0066287878788  11.9940476190476 14.3330965909091  15.0892857142857 16.7549715909091  C 15.1785714285714 16.8283617424242  15.4389880952381 17.0448626893939  15.8705357142857 17.4044744318182  C 16.3020833333333 17.7640861742424  16.6443452380952 18.0392992424242  16.8973214285714 18.2301136363636  C 17.1502976190476 18.420928030303  17.4813988095238 18.6521070075758  17.890625 18.9236505681818  C 18.2998511904762 19.1951941287879  18.6755952380952 19.3970170454545  19.0178571428571 19.5291193181818  C 19.360119047619 19.6612215909091  19.6800595238095 19.7272727272727  19.9776785714286 19.7272727272727  L 20 19.7272727272727  L 20.0223214285714 19.7272727272727  C 20.3199404761905 19.7272727272727  20.639880952381 19.6612215909091  20.9821428571429 19.5291193181818  C 21.3244047619048 19.3970170454545  21.7001488095238 19.1951941287879  22.109375 18.9236505681818  C 22.5186011904762 18.6521070075758  22.8497023809524 18.420928030303  23.1026785714286 18.2301136363636  C 23.3556547619048 18.0392992424242  23.6979166666667 17.7640861742424  24.1294642857143 17.4044744318182  C 24.5610119047619 17.0448626893939  24.8214285714286 16.8283617424242  24.9107142857143 16.7549715909091  C 28.0059523809524 14.3330965909091  30.9895833333333 12.0066287878788  33.8616071428571 9.77556818181818  C 34.6651785714286 9.14441287878788  35.4129464285714 8.29675662878788  36.1049107142857 7.23259943181818  Z M 38.9508928571429 1.03480113636363  C 39.6502976190476 1.72466856060606  40 2.55397727272727  40 3.52272727272727  L 40 27.4772727272727  C 40 28.4460227272727  39.6502976190476 29.2753314393939  38.9508928571429 29.9651988636364  C 38.2514880952381 30.6550662878788  37.4107142857143 31  36.4285714285714 31  L 3.57142857142857 31  C 2.58928571428571 31  1.7485119047619 30.6550662878788  1.04910714285714 29.9651988636364  C 0.349702380952381 29.2753314393939  0 28.4460227272727  0 27.4772727272727  L 0 3.52272727272727  C 0 2.55397727272727  0.349702380952381 1.72466856060606  1.04910714285714 1.03480113636363  C 1.7485119047619 0.344933712121208  2.58928571428571 0  3.57142857142857 0  L 36.4285714285714 0  C 37.4107142857143 0  38.2514880952381 0.344933712121208  38.9508928571429 1.03480113636363  Z " fill-rule="nonzero" fill="#a09d9d" stroke="none" transform="matrix(1 0 0 1 802 405 )" />
  </g>
</svg>