<?xml version="1.0" encoding="utf-8"?>
<svg version="1.1" xmlns:xlink="http://www.w3.org/1999/xlink" width="30px" height="38px" xmlns="http://www.w3.org/2000/svg">
  <g transform="matrix(1 0 0 1 -806 -330 )">
    <path d="M 8.33333333333333 12.0909090909091  L 8.33333333333333 18  L 21.6666666666667 18  L 21.6666666666667 12.0909090909091  C 21.6666666666667 10.1837121212121  21.015625 8.55539772727273  19.7135416666667 7.20596590909091  C 18.4114583333333 5.85653409090909  16.8402777777778 5.18181818181818  15 5.18181818181818  C 13.1597222222222 5.18181818181818  11.5885416666667 5.85653409090909  10.2864583333333 7.20596590909091  C 8.984375 8.55539772727273  8.33333333333333 10.1837121212121  8.33333333333333 12.0909090909091  Z M 29.2708333333333 18.0284090909091  C 29.7569444444444 18.532196969697  30 19.1439393939394  30 19.8636363636364  L 30 35.4090909090909  C 30 36.1287878787879  29.7569444444444 36.7405303030303  29.2708333333333 37.2443181818182  C 28.7847222222222 37.7481060606061  28.1944444444444 38  27.5 38  L 2.5 38  C 1.80555555555556 38  1.21527777777778 37.7481060606061  0.729166666666667 37.2443181818182  C 0.243055555555556 36.7405303030303  0 36.1287878787879  0 35.4090909090909  L 0 19.8636363636364  C 0 19.1439393939394  0.243055555555556 18.532196969697  0.729166666666667 18.0284090909091  C 1.21527777777778 17.5246212121212  1.80555555555556 17.2727272727273  2.5 17.2727272727273  L 3.33333333333333 17.2727272727273  L 3.33333333333333 12.0909090909091  C 3.33333333333333 8.78030303030303  4.47916666666667 5.9375  6.77083333333333 3.5625  C 9.0625 1.1875  11.8055555555556 0  15 0  C 18.1944444444444 0  20.9375 1.1875  23.2291666666667 3.5625  C 25.5208333333333 5.9375  26.6666666666667 8.78030303030303  26.6666666666667 12.0909090909091  L 26.6666666666667 17.2727272727273  L 27.5 17.2727272727273  C 28.1944444444444 17.2727272727273  28.7847222222222 17.5246212121212  29.2708333333333 18.0284090909091  Z " fill-rule="nonzero" fill="#a09d9d" stroke="none" transform="matrix(1 0 0 1 806 330 )" />
  </g>
</svg>