<?xml version="1.0" encoding="utf-8"?>
<svg version="1.1" xmlns:xlink="http://www.w3.org/1999/xlink" width="40px" height="36px" xmlns="http://www.w3.org/2000/svg">
  <g transform="matrix(1 0 0 1 -802 -615 )">
    <path d="M 0 7.71428571428572  L 20 0  L 40 7.71428571428572  L 40 10.2857142857143  L 37.3333333333333 10.2857142857143  C 37.3333333333333 10.6339285714286  37.1909722222222 10.9352678571429  36.90625 11.1897321428571  C 36.6215277777778 11.4441964285714  36.2847222222222 11.5714285714286  35.8958333333333 12  L 4.10416666666667 12  C 3.71527777777778 11.5714285714286  3.37847222222222 11.4441964285714  3.09375 11.1897321428571  C 2.80902777777778 10.9352678571429  2.66666666666667 10.6339285714286  2.66666666666667 10.2857142857143  L 0 10.2857142857143  L 0 7.71428571428572  Z M 6 28.2857142857143  L 6 12.8571428571429  L 11 12.8571428571429  L 11 28.2857142857143  L 14 28.2857142857143  L 14 12.8571428571429  L 19 12.8571428571429  L 19 28.2857142857143  L 21 28.2857142857143  L 21 12.8571428571429  L 26 12.8571428571429  L 26 28.2857142857143  L 29 28.2857142857143  L 29 12.8571428571429  L 34 12.8571428571429  L 34 28.2857142857143  L 35.8958333333333 28.2857142857143  C 36.2847222222222 28.2857142857143  36.6215277777778 28.4129464285714  36.90625 28.6674107142857  C 37.1909722222222 28.921875  37.3333333333333 29.2232142857143  37.3333333333333 29.5714285714286  L 37.3333333333333 30.8571428571429  L 2.66666666666667 30.8571428571429  L 2.66666666666667 29.5714285714286  C 2.66666666666667 29.2232142857143  2.80902777777778 28.921875  3.09375 28.6674107142857  C 3.37847222222222 28.4129464285714  3.71527777777778 28.2857142857143  4.10416666666667 28.2857142857143  L 6 28.2857142857143  Z M 1.4375 32  L 38.5625 32  C 38.9513888888889 32.1428571428571  39.2881944444444 32.2700892857143  39.5729166666667 32.5245535714286  C 39.8576388888889 32.7790178571429  40 33.0803571428571  40 33.4285714285714  L 40 36  L 0 36  L 0 33.4285714285714  C 0 33.0803571428571  0.142361111111111 32.7790178571429  0.427083333333333 32.5245535714286  C 0.711805555555556 32.2700892857143  1.04861111111111 32.1428571428571  1.4375 32  Z " fill-rule="nonzero" fill="#a09d9d" stroke="none" transform="matrix(1 0 0 1 802 615 )" />
  </g>
</svg>