<?xml version="1.0" encoding="utf-8"?>
<svg version="1.1" xmlns:xlink="http://www.w3.org/1999/xlink" width="30px" height="40px" xmlns="http://www.w3.org/2000/svg">
  <g transform="matrix(1 0 0 1 -806 -542 )">
    <path d="M 1.36363636363636 0  L 28.6363636363636 0  C 29.0056818181818 0  29.3252840909091 0.141369047619051  29.5951704545455 0.424107142857144  C 29.8650568181818 0.706845238095233  30 1.04166666666667  30 1.42857142857143  L 30 38.5714285714286  C 30 38.9583333333333  29.8650568181818 39.2931547619048  29.5951704545455 39.5758928571429  C 29.3252840909091 39.858630952381  29.0056818181818 40  28.6363636363636 40  L 1.36363636363636 40  C 0.994318181818182 40  0.674715909090909 39.858630952381  0.404829545454545 39.5758928571429  C 0.134943181818182 39.2931547619048  0 38.9583333333333  0 38.5714285714286  L 0 1.42857142857143  C 0 1.04166666666667  0.134943181818182 0.706845238095233  0.404829545454545 0.424107142857144  C 0.674715909090909 0.141369047619051  0.994318181818182 0  1.36363636363636 0  Z M 11.1008522727273 5.91517857142857  C 10.9730113636364 6.04910714285714  10.9090909090909 6.22023809523809  10.9090909090909 6.42857142857143  L 10.9090909090909 7.85714285714286  C 10.9090909090909 8.06547619047619  10.9730113636364 8.23660714285714  11.1008522727273 8.37053571428572  C 11.2286931818182 8.50446428571428  11.3920454545455 8.57142857142857  11.5909090909091 8.57142857142857  L 12.9545454545455 8.57142857142857  C 13.1534090909091 8.57142857142857  13.3167613636364 8.50446428571428  13.4446022727273 8.37053571428572  C 13.5724431818182 8.23660714285714  13.6363636363636 8.06547619047619  13.6363636363636 7.85714285714286  L 13.6363636363636 6.42857142857143  C 13.6363636363636 6.22023809523809  13.5724431818182 6.04910714285714  13.4446022727273 5.91517857142857  C 13.3167613636364 5.78125  13.1534090909091 5.71428571428572  12.9545454545455 5.71428571428572  L 11.5909090909091 5.71428571428572  C 11.3920454545455 5.71428571428572  11.2286931818182 5.78125  11.1008522727273 5.91517857142857  Z M 11.1008522727273 11.6294642857143  C 10.9730113636364 11.7633928571429  10.9090909090909 11.9345238095238  10.9090909090909 12.1428571428571  L 10.9090909090909 13.5714285714286  C 10.9090909090909 13.7797619047619  10.9730113636364 13.9508928571429  11.1008522727273 14.0848214285714  C 11.2286931818182 14.21875  11.3920454545455 14.2857142857143  11.5909090909091 14.2857142857143  L 12.9545454545455 14.2857142857143  C 13.1534090909091 14.2857142857143  13.3167613636364 14.21875  13.4446022727273 14.0848214285714  C 13.5724431818182 13.9508928571429  13.6363636363636 13.7797619047619  13.6363636363636 13.5714285714286  L 13.6363636363636 12.1428571428571  C 13.6363636363636 11.9345238095238  13.5724431818182 11.7633928571429  13.4446022727273 11.6294642857143  C 13.3167613636364 11.4955357142857  13.1534090909091 11.4285714285714  12.9545454545455 11.4285714285714  L 11.5909090909091 11.4285714285714  C 11.3920454545455 11.4285714285714  11.2286931818182 11.4955357142857  11.1008522727273 11.6294642857143  Z M 11.1008522727273 17.34375  C 10.9730113636364 17.4776785714286  10.9090909090909 17.6488095238095  10.9090909090909 17.8571428571429  L 10.9090909090909 19.2857142857143  C 10.9090909090909 19.4940476190476  10.9730113636364 19.6651785714286  11.1008522727273 19.7991071428571  C 11.2286931818182 19.9330357142857  11.3920454545455 20  11.5909090909091 20  L 12.9545454545455 20  C 13.1534090909091 20  13.3167613636364 19.9330357142857  13.4446022727273 19.7991071428571  C 13.5724431818182 19.6651785714286  13.6363636363636 19.4940476190476  13.6363636363636 19.2857142857143  L 13.6363636363636 17.8571428571429  C 13.6363636363636 17.6488095238095  13.5724431818182 17.4776785714286  13.4446022727273 17.34375  C 13.3167613636364 17.2098214285714  13.1534090909091 17.1428571428571  12.9545454545455 17.1428571428571  L 11.5909090909091 17.1428571428571  C 11.3920454545455 17.1428571428571  11.2286931818182 17.2098214285714  11.1008522727273 17.34375  Z M 11.1008522727273 23.0580357142857  C 10.9730113636364 23.1919642857143  10.9090909090909 23.3630952380952  10.9090909090909 23.5714285714286  L 10.9090909090909 25  C 10.9090909090909 25.2083333333333  10.9730113636364 25.3794642857143  11.1008522727273 25.5133928571429  C 11.2286931818182 25.6473214285714  11.3920454545455 25.7142857142857  11.5909090909091 25.7142857142857  L 12.9545454545455 25.7142857142857  C 13.1534090909091 25.7142857142857  13.3167613636364 25.6473214285714  13.4446022727273 25.5133928571429  C 13.5724431818182 25.3794642857143  13.6363636363636 25.2083333333333  13.6363636363636 25  L 13.6363636363636 23.5714285714286  C 13.6363636363636 23.3630952380952  13.5724431818182 23.1919642857143  13.4446022727273 23.0580357142857  C 13.3167613636364 22.9241071428571  13.1534090909091 22.8571428571429  12.9545454545455 22.8571428571429  L 11.5909090909091 22.8571428571429  C 11.3920454545455 22.8571428571429  11.2286931818182 22.9241071428571  11.1008522727273 23.0580357142857  Z M 7.99005681818182 31.2276785714286  C 8.11789772727273 31.09375  8.18181818181818 30.922619047619  8.18181818181818 30.7142857142857  L 8.18181818181818 29.2857142857143  C 8.18181818181818 29.077380952381  8.11789772727273 28.90625  7.99005681818182 28.7723214285714  C 7.86221590909091 28.6383928571429  7.69886363636364 28.5714285714286  7.5 28.5714285714286  L 6.13636363636364 28.5714285714286  C 5.9375 28.5714285714286  5.77414772727273 28.6383928571429  5.64630681818182 28.7723214285714  C 5.51846590909091 28.90625  5.45454545454546 29.077380952381  5.45454545454546 29.2857142857143  L 5.45454545454546 30.7142857142857  C 5.45454545454546 30.922619047619  5.51846590909091 31.09375  5.64630681818182 31.2276785714286  C 5.77414772727273 31.3616071428571  5.9375 31.4285714285714  6.13636363636364 31.4285714285714  L 7.5 31.4285714285714  C 7.69886363636364 31.4285714285714  7.86221590909091 31.3616071428571  7.99005681818182 31.2276785714286  Z M 7.99005681818182 25.5133928571429  C 8.11789772727273 25.3794642857143  8.18181818181818 25.2083333333333  8.18181818181818 25  L 8.18181818181818 23.5714285714286  C 8.18181818181818 23.3630952380952  8.11789772727273 23.1919642857143  7.99005681818182 23.0580357142857  C 7.86221590909091 22.9241071428571  7.69886363636364 22.8571428571429  7.5 22.8571428571429  L 6.13636363636364 22.8571428571429  C 5.9375 22.8571428571429  5.77414772727273 22.9241071428571  5.64630681818182 23.0580357142857  C 5.51846590909091 23.1919642857143  5.45454545454546 23.3630952380952  5.45454545454546 23.5714285714286  L 5.45454545454546 25  C 5.45454545454546 25.2083333333333  5.51846590909091 25.3794642857143  5.64630681818182 25.5133928571429  C 5.77414772727273 25.6473214285714  5.9375 25.7142857142857  6.13636363636364 25.7142857142857  L 7.5 25.7142857142857  C 7.69886363636364 25.7142857142857  7.86221590909091 25.6473214285714  7.99005681818182 25.5133928571429  Z M 7.99005681818182 19.7991071428571  C 8.11789772727273 19.6651785714286  8.18181818181818 19.4940476190476  8.18181818181818 19.2857142857143  L 8.18181818181818 17.8571428571429  C 8.18181818181818 17.6488095238095  8.11789772727273 17.4776785714286  7.99005681818182 17.34375  C 7.86221590909091 17.2098214285714  7.69886363636364 17.1428571428571  7.5 17.1428571428571  L 6.13636363636364 17.1428571428571  C 5.9375 17.1428571428571  5.77414772727273 17.2098214285714  5.64630681818182 17.34375  C 5.51846590909091 17.4776785714286  5.45454545454546 17.6488095238095  5.45454545454546 17.8571428571429  L 5.45454545454546 19.2857142857143  C 5.45454545454546 19.4940476190476  5.51846590909091 19.6651785714286  5.64630681818182 19.7991071428571  C 5.77414772727273 19.9330357142857  5.9375 20  6.13636363636364 20  L 7.5 20  C 7.69886363636364 20  7.86221590909091 19.9330357142857  7.99005681818182 19.7991071428571  Z M 7.99005681818182 14.0848214285714  C 8.11789772727273 13.9508928571429  8.18181818181818 13.7797619047619  8.18181818181818 13.5714285714286  L 8.18181818181818 12.1428571428571  C 8.18181818181818 11.9345238095238  8.11789772727273 11.7633928571429  7.99005681818182 11.6294642857143  C 7.86221590909091 11.4955357142857  7.69886363636364 11.4285714285714  7.5 11.4285714285714  L 6.13636363636364 11.4285714285714  C 5.9375 11.4285714285714  5.77414772727273 11.4955357142857  5.64630681818182 11.6294642857143  C 5.51846590909091 11.7633928571429  5.45454545454546 11.9345238095238  5.45454545454546 12.1428571428571  L 5.45454545454546 13.5714285714286  C 5.45454545454546 13.7797619047619  5.51846590909091 13.9508928571429  5.64630681818182 14.0848214285714  C 5.77414772727273 14.21875  5.9375 14.2857142857143  6.13636363636364 14.2857142857143  L 7.5 14.2857142857143  C 7.69886363636364 14.2857142857143  7.86221590909091 14.21875  7.99005681818182 14.0848214285714  Z M 7.99005681818182 8.37053571428572  C 8.11789772727273 8.23660714285714  8.18181818181818 8.06547619047619  8.18181818181818 7.85714285714286  L 8.18181818181818 6.42857142857143  C 8.18181818181818 6.22023809523809  8.11789772727273 6.04910714285714  7.99005681818182 5.91517857142857  C 7.86221590909091 5.78125  7.69886363636364 5.71428571428572  7.5 5.71428571428572  L 6.13636363636364 5.71428571428572  C 5.9375 5.71428571428572  5.77414772727273 5.78125  5.64630681818182 5.91517857142857  C 5.51846590909091 6.04910714285714  5.45454545454546 6.22023809523809  5.45454545454546 6.42857142857143  L 5.45454545454546 7.85714285714286  C 5.45454545454546 8.06547619047619  5.51846590909091 8.23660714285714  5.64630681818182 8.37053571428572  C 5.77414772727273 8.50446428571428  5.9375 8.57142857142857  6.13636363636364 8.57142857142857  L 7.5 8.57142857142857  C 7.69886363636364 8.57142857142857  7.86221590909091 8.50446428571428  7.99005681818182 8.37053571428572  Z M 18.8991477272727 36.9419642857143  C 19.0269886363636 36.8080357142857  19.0909090909091 36.6369047619048  19.0909090909091 36.4285714285714  L 19.0909090909091 32.1428571428571  C 19.0909090909091 31.9345238095238  19.0269886363636 31.7633928571429  18.8991477272727 31.6294642857143  C 18.7713068181818 31.4955357142857  18.6079545454545 31.4285714285714  18.4090909090909 31.4285714285714  L 11.5909090909091 31.4285714285714  C 11.3920454545455 31.4285714285714  11.2286931818182 31.4955357142857  11.1008522727273 31.6294642857143  C 10.9730113636364 31.7633928571429  10.9090909090909 31.9345238095238  10.9090909090909 32.1428571428571  L 10.9090909090909 36.4285714285714  C 10.9090909090909 36.6369047619048  10.9730113636364 36.8080357142857  11.1008522727273 36.9419642857143  C 11.2286931818182 37.0758928571429  11.3920454545455 37.1428571428571  11.5909090909091 37.1428571428571  L 18.4090909090909 37.1428571428571  C 18.6079545454545 37.1428571428571  18.7713068181818 37.0758928571429  18.8991477272727 36.9419642857143  Z M 18.8991477272727 25.5133928571429  C 19.0269886363636 25.3794642857143  19.0909090909091 25.2083333333333  19.0909090909091 25  L 19.0909090909091 23.5714285714286  C 19.0909090909091 23.3630952380952  19.0269886363636 23.1919642857143  18.8991477272727 23.0580357142857  C 18.7713068181818 22.9241071428571  18.6079545454545 22.8571428571429  18.4090909090909 22.8571428571429  L 17.0454545454545 22.8571428571429  C 16.8465909090909 22.8571428571429  16.6832386363636 22.9241071428571  16.5553977272727 23.0580357142857  C 16.4275568181818 23.1919642857143  16.3636363636364 23.3630952380952  16.3636363636364 23.5714285714286  L 16.3636363636364 25  C 16.3636363636364 25.2083333333333  16.4275568181818 25.3794642857143  16.5553977272727 25.5133928571429  C 16.6832386363636 25.6473214285714  16.8465909090909 25.7142857142857  17.0454545454545 25.7142857142857  L 18.4090909090909 25.7142857142857  C 18.6079545454545 25.7142857142857  18.7713068181818 25.6473214285714  18.8991477272727 25.5133928571429  Z M 18.8991477272727 19.7991071428571  C 19.0269886363636 19.6651785714286  19.0909090909091 19.4940476190476  19.0909090909091 19.2857142857143  L 19.0909090909091 17.8571428571429  C 19.0909090909091 17.6488095238095  19.0269886363636 17.4776785714286  18.8991477272727 17.34375  C 18.7713068181818 17.2098214285714  18.6079545454545 17.1428571428571  18.4090909090909 17.1428571428571  L 17.0454545454545 17.1428571428571  C 16.8465909090909 17.1428571428571  16.6832386363636 17.2098214285714  16.5553977272727 17.34375  C 16.4275568181818 17.4776785714286  16.3636363636364 17.6488095238095  16.3636363636364 17.8571428571429  L 16.3636363636364 19.2857142857143  C 16.3636363636364 19.4940476190476  16.4275568181818 19.6651785714286  16.5553977272727 19.7991071428571  C 16.6832386363636 19.9330357142857  16.8465909090909 20  17.0454545454545 20  L 18.4090909090909 20  C 18.6079545454545 20  18.7713068181818 19.9330357142857  18.8991477272727 19.7991071428571  Z M 18.8991477272727 14.0848214285714  C 19.0269886363636 13.9508928571429  19.0909090909091 13.7797619047619  19.0909090909091 13.5714285714286  L 19.0909090909091 12.1428571428571  C 19.0909090909091 11.9345238095238  19.0269886363636 11.7633928571429  18.8991477272727 11.6294642857143  C 18.7713068181818 11.4955357142857  18.6079545454545 11.4285714285714  18.4090909090909 11.4285714285714  L 17.0454545454545 11.4285714285714  C 16.8465909090909 11.4285714285714  16.6832386363636 11.4955357142857  16.5553977272727 11.6294642857143  C 16.4275568181818 11.7633928571429  16.3636363636364 11.9345238095238  16.3636363636364 12.1428571428571  L 16.3636363636364 13.5714285714286  C 16.3636363636364 13.7797619047619  16.4275568181818 13.9508928571429  16.5553977272727 14.0848214285714  C 16.6832386363636 14.21875  16.8465909090909 14.2857142857143  17.0454545454545 14.2857142857143  L 18.4090909090909 14.2857142857143  C 18.6079545454545 14.2857142857143  18.7713068181818 14.21875  18.8991477272727 14.0848214285714  Z M 18.8991477272727 8.37053571428572  C 19.0269886363636 8.23660714285714  19.0909090909091 8.06547619047619  19.0909090909091 7.85714285714286  L 19.0909090909091 6.42857142857143  C 19.0909090909091 6.22023809523809  19.0269886363636 6.04910714285714  18.8991477272727 5.91517857142857  C 18.7713068181818 5.78125  18.6079545454545 5.71428571428572  18.4090909090909 5.71428571428572  L 17.0454545454545 5.71428571428572  C 16.8465909090909 5.71428571428572  16.6832386363636 5.78125  16.5553977272727 5.91517857142857  C 16.4275568181818 6.04910714285714  16.3636363636364 6.22023809523809  16.3636363636364 6.42857142857143  L 16.3636363636364 7.85714285714286  C 16.3636363636364 8.06547619047619  16.4275568181818 8.23660714285714  16.5553977272727 8.37053571428572  C 16.6832386363636 8.50446428571428  16.8465909090909 8.57142857142857  17.0454545454545 8.57142857142857  L 18.4090909090909 8.57142857142857  C 18.6079545454545 8.57142857142857  18.7713068181818 8.50446428571428  18.8991477272727 8.37053571428572  Z M 24.3536931818182 31.2276785714286  C 24.4815340909091 31.09375  24.5454545454545 30.922619047619  24.5454545454545 30.7142857142857  L 24.5454545454545 29.2857142857143  C 24.5454545454545 29.077380952381  24.4815340909091 28.90625  24.3536931818182 28.7723214285714  C 24.2258522727273 28.6383928571429  24.0625 28.5714285714286  23.8636363636364 28.5714285714286  L 22.5 28.5714285714286  C 22.3011363636364 28.5714285714286  22.1377840909091 28.6383928571429  22.0099431818182 28.7723214285714  C 21.8821022727273 28.90625  21.8181818181818 29.077380952381  21.8181818181818 29.2857142857143  L 21.8181818181818 30.7142857142857  C 21.8181818181818 30.922619047619  21.8821022727273 31.09375  22.0099431818182 31.2276785714286  C 22.1377840909091 31.3616071428571  22.3011363636364 31.4285714285714  22.5 31.4285714285714  L 23.8636363636364 31.4285714285714  C 24.0625 31.4285714285714  24.2258522727273 31.3616071428571  24.3536931818182 31.2276785714286  Z M 24.3536931818182 25.5133928571429  C 24.4815340909091 25.3794642857143  24.5454545454545 25.2083333333333  24.5454545454545 25  L 24.5454545454545 23.5714285714286  C 24.5454545454545 23.3630952380952  24.4815340909091 23.1919642857143  24.3536931818182 23.0580357142857  C 24.2258522727273 22.9241071428571  24.0625 22.8571428571429  23.8636363636364 22.8571428571429  L 22.5 22.8571428571429  C 22.3011363636364 22.8571428571429  22.1377840909091 22.9241071428571  22.0099431818182 23.0580357142857  C 21.8821022727273 23.1919642857143  21.8181818181818 23.3630952380952  21.8181818181818 23.5714285714286  L 21.8181818181818 25  C 21.8181818181818 25.2083333333333  21.8821022727273 25.3794642857143  22.0099431818182 25.5133928571429  C 22.1377840909091 25.6473214285714  22.3011363636364 25.7142857142857  22.5 25.7142857142857  L 23.8636363636364 25.7142857142857  C 24.0625 25.7142857142857  24.2258522727273 25.6473214285714  24.3536931818182 25.5133928571429  Z M 24.3536931818182 19.7991071428571  C 24.4815340909091 19.6651785714286  24.5454545454545 19.4940476190476  24.5454545454545 19.2857142857143  L 24.5454545454545 17.8571428571429  C 24.5454545454545 17.6488095238095  24.4815340909091 17.4776785714286  24.3536931818182 17.34375  C 24.2258522727273 17.2098214285714  24.0625 17.1428571428571  23.8636363636364 17.1428571428571  L 22.5 17.1428571428571  C 22.3011363636364 17.1428571428571  22.1377840909091 17.2098214285714  22.0099431818182 17.34375  C 21.8821022727273 17.4776785714286  21.8181818181818 17.6488095238095  21.8181818181818 17.8571428571429  L 21.8181818181818 19.2857142857143  C 21.8181818181818 19.4940476190476  21.8821022727273 19.6651785714286  22.0099431818182 19.7991071428571  C 22.1377840909091 19.9330357142857  22.3011363636364 20  22.5 20  L 23.8636363636364 20  C 24.0625 20  24.2258522727273 19.9330357142857  24.3536931818182 19.7991071428571  Z M 24.3536931818182 14.0848214285714  C 24.4815340909091 13.9508928571429  24.5454545454545 13.7797619047619  24.5454545454545 13.5714285714286  L 24.5454545454545 12.1428571428571  C 24.5454545454545 11.9345238095238  24.4815340909091 11.7633928571429  24.3536931818182 11.6294642857143  C 24.2258522727273 11.4955357142857  24.0625 11.4285714285714  23.8636363636364 11.4285714285714  L 22.5 11.4285714285714  C 22.3011363636364 11.4285714285714  22.1377840909091 11.4955357142857  22.0099431818182 11.6294642857143  C 21.8821022727273 11.7633928571429  21.8181818181818 11.9345238095238  21.8181818181818 12.1428571428571  L 21.8181818181818 13.5714285714286  C 21.8181818181818 13.7797619047619  21.8821022727273 13.9508928571429  22.0099431818182 14.0848214285714  C 22.1377840909091 14.21875  22.3011363636364 14.2857142857143  22.5 14.2857142857143  L 23.8636363636364 14.2857142857143  C 24.0625 14.2857142857143  24.2258522727273 14.21875  24.3536931818182 14.0848214285714  Z M 24.3536931818182 8.37053571428572  C 24.4815340909091 8.23660714285714  24.5454545454545 8.06547619047619  24.5454545454545 7.85714285714286  L 24.5454545454545 6.42857142857143  C 24.5454545454545 6.22023809523809  24.4815340909091 6.04910714285714  24.3536931818182 5.91517857142857  C 24.2258522727273 5.78125  24.0625 5.71428571428572  23.8636363636364 5.71428571428572  L 22.5 5.71428571428572  C 22.3011363636364 5.71428571428572  22.1377840909091 5.78125  22.0099431818182 5.91517857142857  C 21.8821022727273 6.04910714285714  21.8181818181818 6.22023809523809  21.8181818181818 6.42857142857143  L 21.8181818181818 7.85714285714286  C 21.8181818181818 8.06547619047619  21.8821022727273 8.23660714285714  22.0099431818182 8.37053571428572  C 22.1377840909091 8.50446428571428  22.3011363636364 8.57142857142857  22.5 8.57142857142857  L 23.8636363636364 8.57142857142857  C 24.0625 8.57142857142857  24.2258522727273 8.50446428571428  24.3536931818182 8.37053571428572  Z " fill-rule="nonzero" fill="#a09d9d" stroke="none" transform="matrix(1 0 0 1 806 542 )" />
  </g>
</svg>