<?xml version="1.0" encoding="utf-8"?>
<svg version="1.1" xmlns:xlink="http://www.w3.org/1999/xlink" width="40px" height="40px" xmlns="http://www.w3.org/2000/svg">
  <g transform="matrix(1 0 0 1 -802 -471 )">
    <path d="M 32.7604166666667 30.3645833333333  C 33.1423611111111 29.4444444444444  33.3333333333333 28.5677083333333  33.3333333333333 27.734375  C 33.3333333333333 27.5434027777778  33.3159722222222 27.4045138888889  33.28125 27.3177083333333  C 33.2465277777778 27.2309027777778  33.0902777777778 27.0876736111111  32.8125 26.8880208333333  C 32.5347222222222 26.6883680555556  32.1831597222222 26.4713541666667  31.7578125 26.2369791666667  C 31.3324652777778 26.0026041666667  30.9201388888889 25.7725694444444  30.5208333333333 25.546875  C 30.1215277777778 25.3211805555556  29.7265625 25.1041666666667  29.3359375 24.8958333333333  C 28.9453125 24.6875  28.6979166666667 24.5572916666667  28.59375 24.5052083333333  C 28.5069444444444 24.453125  28.3420138888889 24.3402777777778  28.0989583333333 24.1666666666667  C 27.8559027777778 23.9930555555556  27.6388888888889 23.8628472222222  27.4479166666667 23.7760416666667  C 27.2569444444444 23.6892361111111  27.0746527777778 23.6458333333333  26.9010416666667 23.6458333333333  C 26.640625 23.6458333333333  26.3237847222222 23.8237847222222  25.9505208333333 24.1796875  C 25.5772569444444 24.5355902777778  25.234375 24.9262152777778  24.921875 25.3515625  C 24.609375 25.7769097222222  24.2751736111111 26.1675347222222  23.9192708333333 26.5234375  C 23.5633680555556 26.8793402777778  23.2725694444444 27.0572916666667  23.046875 27.0572916666667  C 22.9253472222222 27.0572916666667  22.7821180555556 27.0269097222222  22.6171875 26.9661458333333  C 22.4522569444444 26.9053819444444  22.3177083333333 26.8489583333333  22.2135416666667 26.796875  C 22.109375 26.7447916666667  21.9618055555556 26.6623263888889  21.7708333333333 26.5494791666667  C 21.5798611111111 26.4366319444444  21.4583333333333 26.3628472222222  21.40625 26.328125  C 19.6875 25.3732638888889  18.2118055555556 24.2751736111111  16.9791666666667 23.0338541666667  C 15.7465277777778 21.7925347222222  14.6440972222222 20.3125  13.671875 18.59375  C 13.6371527777778 18.5416666666667  13.5633680555556 18.4201388888889  13.4505208333333 18.2291666666667  C 13.3376736111111 18.0381944444444  13.2552083333333 17.890625  13.203125 17.7864583333333  C 13.1510416666667 17.6822916666667  13.0946180555556 17.5477430555556  13.0338541666667 17.3828125  C 12.9730902777778 17.2178819444444  12.9427083333333 17.0746527777778  12.9427083333333 16.953125  C 12.9427083333333 16.7274305555556  13.1206597222222 16.4366319444444  13.4765625 16.0807291666667  C 13.8324652777778 15.7248263888889  14.2230902777778 15.390625  14.6484375 15.078125  C 15.0737847222222 14.765625  15.4644097222222 14.4227430555556  15.8203125 14.0494791666667  C 16.1762152777778 13.6762152777778  16.3541666666667 13.359375  16.3541666666667 13.0989583333333  C 16.3541666666667 12.9253472222222  16.3107638888889 12.7430555555556  16.2239583333333 12.5520833333333  C 16.1371527777778 12.3611111111111  16.0069444444444 12.1440972222222  15.8333333333333 11.9010416666667  C 15.6597222222222 11.6579861111111  15.546875 11.4930555555556  15.4947916666667 11.40625  C 15.4427083333333 11.3020833333333  15.3125 11.0546875  15.1041666666667 10.6640625  C 14.8958333333333 10.2734375  14.6788194444444 9.87847222222222  14.453125 9.47916666666666  C 14.2274305555556 9.07986111111111  13.9973958333333 8.66753472222222  13.7630208333333 8.2421875  C 13.5286458333333 7.81684027777777  13.3116319444444 7.46527777777777  13.1119791666667 7.1875  C 12.9123263888889 6.90972222222222  12.7690972222222 6.75347222222222  12.6822916666667 6.71875  C 12.5954861111111 6.68402777777777  12.4565972222222 6.66666666666667  12.265625 6.66666666666667  C 11.4322916666667 6.66666666666667  10.5555555555556 6.85763888888889  9.63541666666667 7.23958333333333  C 8.83680555555556 7.60416666666667  8.14236111111111 8.42447916666666  7.55208333333333 9.70052083333334  C 6.96180555555556 10.9765625  6.66666666666667 12.109375  6.66666666666667 13.0989583333333  C 6.66666666666667 13.3767361111111  6.68836805555556 13.671875  6.73177083333333 13.984375  C 6.77517361111111 14.296875  6.81857638888889 14.5616319444444  6.86197916666667 14.7786458333333  C 6.90538194444445 14.9956597222222  6.98350694444445 15.2821180555556  7.09635416666667 15.6380208333333  C 7.20920138888889 15.9939236111111  7.29600694444445 16.25  7.35677083333333 16.40625  C 7.41753472222222 16.5625  7.52604166666667 16.8489583333333  7.68229166666667 17.265625  C 7.83854166666667 17.6822916666667  7.93402777777778 17.9427083333333  7.96875 18.046875  C 9.01041666666667 20.8940972222222  10.8897569444444 23.6762152777778  13.6067708333333 26.3932291666667  C 16.3237847222222 29.1102430555556  19.1059027777778 30.9895833333333  21.953125 32.03125  C 22.0572916666667 32.0659722222222  22.3177083333333 32.1614583333333  22.734375 32.3177083333333  C 23.1510416666667 32.4739583333333  23.4375 32.5824652777778  23.59375 32.6432291666667  C 23.75 32.7039930555556  24.0060763888889 32.7907986111111  24.3619791666667 32.9036458333333  C 24.7178819444444 33.0164930555556  25.0043402777778 33.0946180555556  25.2213541666667 33.1380208333333  C 25.4383680555556 33.1814236111111  25.703125 33.2248263888889  26.015625 33.2682291666667  C 26.328125 33.3116319444444  26.6232638888889 33.3333333333333  26.9010416666667 33.3333333333333  C 27.890625 33.3333333333333  29.0234375 33.0381944444444  30.2994791666667 32.4479166666667  C 31.5755208333333 31.8576388888889  32.3958333333333 31.1631944444444  32.7604166666667 30.3645833333333  Z M 37.7994791666667 2.20052083333333  C 39.2664930555556 3.66753472222222  40 5.43402777777777  40 7.5  L 40 32.5  C 40 34.5659722222222  39.2664930555556 36.3324652777778  37.7994791666667 37.7994791666667  C 36.3324652777778 39.2664930555556  34.5659722222222 40  32.5 40  L 7.5 40  C 5.43402777777778 40  3.66753472222222 39.2664930555556  2.20052083333333 37.7994791666667  C 0.733506944444444 36.3324652777778  0 34.5659722222222  0 32.5  L 0 7.5  C 0 5.43402777777777  0.733506944444444 3.66753472222222  2.20052083333333 2.20052083333333  C 3.66753472222222 0.733506944444442  5.43402777777778 0  7.5 0  L 32.5 0  C 34.5659722222222 0  36.3324652777778 0.733506944444442  37.7994791666667 2.20052083333333  Z " fill-rule="nonzero" fill="#a09d9d" stroke="none" transform="matrix(1 0 0 1 802 471 )" />
  </g>
</svg>