<?xml version="1.0" encoding="utf-8"?>
<svg version="1.1" xmlns:xlink="http://www.w3.org/1999/xlink" width="38px" height="38px" xmlns="http://www.w3.org/2000/svg">
  <g transform="matrix(1 0 0 1 -92 -402 )">
    <path d="M 38 34.7627215551744  L 27.15837621498 23.8993710691824  L 25.4311034877073 23.8993710691824  L 24.8336192109777 23.3018867924528  C 26.9628359062321 20.8359062321326  28.2447112635792 17.631217838765  28.2447112635792 14.1223556317896  C 28.2447112635792 6.32246998284734  21.9222412807318 0  14.1223556317896 0  C 6.32246998284734 0  0 6.32246998284734  0 14.1223556317896  C 0 21.9222412807318  6.32246998284734 28.2447112635792  14.1223556317896 28.2447112635792  C 17.631217838765 28.2447112635792  20.8359062321327 26.9628359062321  23.3018867924528 24.8444825614637  L 23.8993710691824 25.4419668381932  L 23.8993710691824 27.15837621498  L 34.7627215551744 38  L 38 34.7627215551744  Z M 23.8993710691824 14.1223556317896  C 23.8993710691824 19.5214408233276  19.5214408233276 23.8993710691824  14.1223556317896 23.8993710691824  C 8.72327044025158 23.8993710691824  4.3453401943968 19.5214408233276  4.3453401943968 14.1223556317896  C 4.3453401943968 8.72327044025157  8.72327044025158 4.3453401943968  14.1223556317896 4.3453401943968  C 19.5214408233276 4.3453401943968  23.8993710691824 8.72327044025157  23.8993710691824 14.1223556317896  Z " fill-rule="nonzero" fill="#ff0000" stroke="none" transform="matrix(1 0 0 1 92 402 )" />
  </g>
</svg>