<?xml version="1.0" encoding="utf-8"?>
<svg version="1.1" xmlns:xlink="http://www.w3.org/1999/xlink" width="60px" height="72px" xmlns="http://www.w3.org/2000/svg">
  <g transform="matrix(1 0 0 1 -792 -707 )">
    <path d="M 59.6015625 52.0546875  C 59.8671875 54.4140625  60 56.921875  60 59.578125  C 60 62.984375  59.0234375 65.90625  57.0703125 68.34375  C 55.1171875 70.78125  52.765625 72  50.015625 72  L 9.984375 72  C 7.234375 72  4.8828125 70.78125  2.9296875 68.34375  C 0.9765625 65.90625  0 62.984375  0 59.578125  C 0 56.921875  0.1328125 54.4140625  0.3984375 52.0546875  C 0.6640625 49.6953125  1.15625 47.3203125  1.875 44.9296875  C 2.59375 42.5390625  3.5078125 40.4921875  4.6171875 38.7890625  C 5.7265625 37.0859375  7.1953125 35.6953125  9.0234375 34.6171875  C 10.8515625 33.5390625  12.953125 33  15.328125 33  C 19.421875 37  24.3125 39  30 39  C 35.6875 39  40.578125 37  44.671875 33  C 47.046875 33  49.1484375 33.5390625  50.9765625 34.6171875  C 52.8046875 35.6953125  54.2734375 37.0859375  55.3828125 38.7890625  C 56.4921875 40.4921875  57.40625 42.5390625  58.125 44.9296875  C 58.84375 47.3203125  59.3359375 49.6953125  59.6015625 52.0546875  Z M 42.7265625 5.2734375  C 46.2421875 8.7890625  48 13.03125  48 18  C 48 22.96875  46.2421875 27.2109375  42.7265625 30.7265625  C 39.2109375 34.2421875  34.96875 36  30 36  C 25.03125 36  20.7890625 34.2421875  17.2734375 30.7265625  C 13.7578125 27.2109375  12 22.96875  12 18  C 12 13.03125  13.7578125 8.7890625  17.2734375 5.2734375  C 20.7890625 1.7578125  25.03125 0  30 0  C 34.96875 0  39.2109375 1.7578125  42.7265625 5.2734375  Z " fill-rule="nonzero" fill="#ffffff" stroke="none" transform="matrix(1 0 0 1 792 707 )" />
  </g>
</svg>