<?xml version="1.0" encoding="utf-8"?>
<svg version="1.1" xmlns:xlink="http://www.w3.org/1999/xlink" width="58px" height="44px" xmlns="http://www.w3.org/2000/svg">
  <g transform="matrix(1 0 0 1 -96 -1029 )">
    <path d="M 18.4459016393443 35.3216885007278  C 18.4459016393443 35.5992236778263  18.3402550091075 35.8447355652596  18.1289617486339 36.0582241630277  L 16.544262295082 37.6593886462882  C 16.3329690346084 37.8728772440563  16.0899817850638 37.9796215429403  15.8153005464481 37.9796215429403  C 15.5406193078324 37.9796215429403  15.2976320582878 37.8728772440563  15.0863387978142 37.6593886462882  L 0.316939890710383 22.7365356622999  C 0.105646630236794 22.5230470645318  0 22.2775351770985  0 22  C 0 21.7224648229015  0.105646630236794 21.4769529354682  0.316939890710383 21.2634643377001  L 15.0863387978142 6.34061135371179  C 15.2976320582878 6.12712275594371  15.5406193078324 6.02037845705968  15.8153005464481 6.02037845705968  C 16.0899817850638 6.02037845705968  16.3329690346084 6.12712275594371  16.544262295082 6.34061135371179  L 18.1289617486339 7.94177583697234  C 18.3402550091075 8.15526443474041  18.4459016393443 8.4007763221737  18.4459016393443 8.6783114992722  C 18.4459016393443 8.95584667637069  18.3402550091075 9.20135856380398  18.1289617486339 9.41484716157206  L 5.67322404371585 22  L 18.1289617486339 34.585152838428  C 18.3402550091075 34.798641436196  18.4459016393443 35.0441533236293  18.4459016393443 35.3216885007278  Z M 36.7808743169399 1.10480349344978  C 36.9182149362477 1.35031538088306  36.9446265938069 1.61183891314895  36.8601092896175 1.88937409024745  L 25.0382513661202 43.2314410480349  C 24.9537340619308 43.5089762251334  24.7899817850638 43.7171276079573  24.5469945355191 43.8558951965066  C 24.3040072859745 43.9946627850558  24.055737704918 44.0213488597768  23.8021857923497 43.9359534206696  L 21.8371584699454 43.391557496361  C 21.5624772313297 43.3061620572538  21.3564663023679 43.1407083939835  21.2191256830601 42.8951965065502  C 21.0817850637523 42.6496846191169  21.0553734061931 42.388161086851  21.1398907103825 42.1106259097525  L 32.9617486338798 0.768558951965067  C 33.0462659380692 0.491023774866565  33.2100182149363 0.282872392042695  33.4530054644809 0.144104803493451  C 33.6959927140255 0.00533721494419792  33.944262295082 -0.0213488597768112  34.1978142076503 0.0640465793304239  L 36.1628415300546 0.608442503639012  C 36.4375227686703 0.693837942746233  36.6435336976321 0.859291606016495  36.7808743169399 1.10480349344978  Z M 58 22  C 58 22.2775351770985  57.8943533697632 22.5230470645318  57.6830601092896 22.7365356622999  L 42.9136612021858 37.6593886462882  C 42.7023679417122 37.8728772440563  42.4593806921676 37.9796215429403  42.1846994535519 37.9796215429403  C 41.9100182149363 37.9796215429403  41.6670309653916 37.8728772440563  41.455737704918 37.6593886462882  L 39.8710382513661 36.0582241630277  C 39.6597449908925 35.8447355652596  39.5540983606557 35.5992236778263  39.5540983606557 35.3216885007278  C 39.5540983606557 35.0441533236293  39.6597449908925 34.798641436196  39.8710382513661 34.585152838428  L 52.3267759562842 22  L 39.8710382513661 9.41484716157206  C 39.6597449908925 9.20135856380398  39.5540983606557 8.95584667637069  39.5540983606557 8.6783114992722  C 39.5540983606557 8.4007763221737  39.6597449908925 8.15526443474041  39.8710382513661 7.94177583697234  L 41.455737704918 6.34061135371179  C 41.6670309653916 6.12712275594371  41.9100182149363 6.02037845705968  42.1846994535519 6.02037845705968  C 42.4593806921676 6.02037845705968  42.7023679417122 6.12712275594371  42.9136612021858 6.34061135371179  L 57.6830601092896 21.2634643377001  C 57.8943533697632 21.4769529354682  58 21.7224648229015  58 22  Z " fill-rule="nonzero" fill="#2d6d82" stroke="none" transform="matrix(1 0 0 1 96 1029 )" />
  </g>
</svg>