<?xml version="1.0" encoding="utf-8"?>
<svg version="1.1" xmlns:xlink="http://www.w3.org/1999/xlink" width="58px" height="44px" xmlns="http://www.w3.org/2000/svg">
  <g transform="matrix(1 0 0 1 -573 -1029 )">
    <path d="M 11 22  L 19 22  L 19 36.6666666666667  L 11 36.6666666666667  L 11 22  Z M 22 7.33333333333333  L 29 7.33333333333333  L 29 36.6666666666667  L 22 36.6666666666667  L 22 7.33333333333333  Z M 4 40  L 58 40  L 58 44  L 0 44  L 0 0  L 4 0  L 4 40  Z M 32 14.6666666666667  L 39 14.6666666666667  L 39 36.6666666666667  L 32 36.6666666666667  L 32 14.6666666666667  Z M 43 3.66666666666667  L 50 3.66666666666667  L 50 36.6666666666667  L 43 36.6666666666667  L 43 3.66666666666667  Z " fill-rule="nonzero" fill="#2d6d82" stroke="none" transform="matrix(1 0 0 1 573 1029 )" />
  </g>
</svg>