<?xml version="1.0" encoding="utf-8"?>
<svg version="1.1" xmlns:xlink="http://www.w3.org/1999/xlink" width="64px" height="55px" xmlns="http://www.w3.org/2000/svg">
  <g transform="matrix(1 0 0 1 -571 -1148 )">
    <path d="M 32.8214285714286 26.0319010416667  C 33.0357142857143 25.8170572916667  33.1428571428571 25.5425347222222  33.1428571428571 25.2083333333333  C 33.1428571428571 24.8741319444444  33.0357142857143 24.599609375  32.8214285714286 24.384765625  C 32.6071428571429 24.169921875  32.3333333333333 24.0625  32 24.0625  C 30.4285714285714 24.0625  29.0833333333333 24.6234809027778  27.9642857142857 25.7454427083333  C 26.8452380952381 26.8674045138889  26.2857142857143 28.2161458333333  26.2857142857143 29.7916666666667  C 26.2857142857143 30.1258680555556  26.3928571428571 30.400390625  26.6071428571429 30.615234375  C 26.8214285714286 30.830078125  27.0952380952381 30.9375  27.4285714285714 30.9375  C 27.7619047619048 30.9375  28.0357142857143 30.830078125  28.25 30.615234375  C 28.4642857142857 30.400390625  28.5714285714286 30.1258680555556  28.5714285714286 29.7916666666667  C 28.5714285714286 28.8368055555556  28.9047619047619 28.0251736111111  29.5714285714286 27.3567708333333  C 30.2380952380952 26.6883680555556  31.047619047619 26.3541666666667  32 26.3541666666667  C 32.3333333333333 26.3541666666667  32.6071428571429 26.2467447916667  32.8214285714286 26.0319010416667  Z M 38.4642857142857 23.3821614583333  C 40.25 25.1725260416667  41.1428571428571 27.3328993055556  41.1428571428571 29.86328125  C 41.1428571428571 32.3936631944444  40.25 34.5540364583333  38.4642857142857 36.3444010416667  C 36.6785714285714 38.134765625  34.5238095238095 39.0299479166667  32 39.0299479166667  C 29.4761904761905 39.0299479166667  27.3214285714286 38.134765625  25.5357142857143 36.3444010416667  C 23.75 34.5540364583333  22.8571428571429 32.3936631944444  22.8571428571429 29.86328125  C 22.8571428571429 27.3328993055556  23.75 25.1725260416667  25.5357142857143 23.3821614583333  C 27.3214285714286 21.591796875  29.4761904761905 20.6966145833333  32 20.6966145833333  C 34.5238095238095 20.6966145833333  36.6785714285714 21.591796875  38.4642857142857 23.3821614583333  Z M 4.57142857142857 45  L 4.57142857142857 50  L 59.4285714285714 50  L 59.4285714285714 45  L 4.57142857142857 45  Z M 41.6964285714286 39.5849609375  C 44.375 36.8994140625  45.7142857142857 33.6588541666667  45.7142857142857 29.86328125  C 45.7142857142857 26.0677083333333  44.375 22.8271484375  41.6964285714286 20.1416015625  C 39.0178571428571 17.4560546875  35.7857142857143 16.11328125  32 16.11328125  C 28.2142857142857 16.11328125  24.9821428571429 17.4560546875  22.3035714285714 20.1416015625  C 19.625 22.8271484375  18.2857142857143 26.0677083333333  18.2857142857143 29.86328125  C 18.2857142857143 33.6588541666667  19.625 36.8994140625  22.3035714285714 39.5849609375  C 24.9821428571429 42.2705078125  28.2142857142857 43.61328125  32 43.61328125  C 35.7857142857143 43.61328125  39.0178571428571 42.2705078125  41.6964285714286 39.5849609375  Z M 9.14285714285714 3  L 9.14285714285714 7  L 22.8571428571429 7  L 22.8571428571429 3  L 9.14285714285714 3  Z M 4.57142857142857 10  L 4.57142857142857 14  L 59.4285714285714 14  L 59.4285714285714 9.52473958333334  L 59.4285714285714 5  L 29.8571428571429 5  L 27.5714285714286 10  L 4.57142857142857 10  Z M 62.6607142857143 1.3427734375  C 63.5535714285714 2.23795572916666  64 3.31814236111111  64 4.58333333333334  L 64 50.4166666666667  C 64 51.6818576388889  63.5535714285714 52.7620442708333  62.6607142857143 53.6572265625  C 61.7678571428571 54.5524088541667  60.6904761904762 55  59.4285714285714 55  L 4.57142857142857 55  C 3.30952380952381 55  2.23214285714286 54.5524088541667  1.33928571428571 53.6572265625  C 0.446428571428571 52.7620442708333  0 51.6818576388889  0 50.4166666666667  L 0 4.58333333333334  C 0 3.31814236111111  0.446428571428571 2.23795572916666  1.33928571428571 1.3427734375  C 2.23214285714286 0.447591145833335  3.30952380952381 0  4.57142857142857 0  L 59.4285714285714 0  C 60.6904761904762 0  61.7678571428571 0.447591145833335  62.6607142857143 1.3427734375  Z " fill-rule="nonzero" fill="#2d6d82" stroke="none" transform="matrix(1 0 0 1 571 1148 )" />
  </g>
</svg>