<?xml version="1.0" encoding="utf-8"?>
<svg version="1.1" xmlns:xlink="http://www.w3.org/1999/xlink" width="49px" height="58px" xmlns="http://www.w3.org/2000/svg">
  <g transform="matrix(1 0 0 1 -1285 -1704 )">
    <path d="M 44 52.5181758096497  L 44 5  L 5 5  L 5 52.5181758096497  L 21.09296875 36.9543952412426  L 24.5 33.6959682749504  L 27.90703125 36.9543952412426  L 44 52.5181758096497  Z M 4.440625 0  L 44.559375 0  C 45.1463541666667 0  45.7078125 0.115003304692665  46.24375 0.345009914077994  C 47.0859375 0.677241683190122  47.755859375 1.20114562679004  48.253515625 1.91672174487773  C 48.751171875 2.63229786296541  49 3.4245428508482  49 4.29345670852611  L 49 53.7065432914739  C 49 54.5754571491518  48.751171875 55.3677021370346  48.253515625 56.0832782551223  C 47.755859375 56.79885437321  47.0859375 57.3227583168099  46.24375 57.654990085922  C 45.7588541666667 57.8594404053756  45.1973958333333 57.9616655651025  44.559375 57.9616655651025  C 43.334375 57.9616655651025  42.2752604166667 57.5527649261952  41.38203125 56.7349636483807  L 24.5 40.4811632518176  L 7.61796875 56.7349636483807  C 6.69921875 57.5783212161269  5.64010416666667 58  4.440625 58  C 3.85364583333333 58  3.2921875 57.8849966953073  2.75625 57.654990085922  C 1.9140625 57.3227583168099  1.244140625 56.79885437321  0.746484375 56.0832782551223  C 0.248828125 55.3677021370346  0 54.5754571491518  0 53.7065432914739  L 0 4.29345670852611  C 0 3.4245428508482  0.248828125 2.63229786296541  0.746484375 1.91672174487773  C 1.244140625 1.20114562679004  1.9140625 0.677241683190122  2.75625 0.345009914077994  C 3.2921875 0.115003304692665  3.85364583333333 0  4.440625 0  Z " fill-rule="nonzero" fill="#1c1a6d" stroke="none" transform="matrix(1 0 0 1 1285 1704 )" />
  </g>
</svg>