<?xml version="1.0" encoding="utf-8"?>
<svg version="1.1" xmlns:xlink="http://www.w3.org/1999/xlink" width="50px" height="58px" xmlns="http://www.w3.org/2000/svg">
  <g transform="matrix(1 0 0 1 -457 -1616 )">
    <path d="M 48.9583333333333 4.14285714285714  L 45.8333333333333 4.14285714285714  C 45.8333333333333 9.77455357142857  44.677734375 14.7535342261905  42.3665364583333 19.0797991071429  C 40.0553385416667 23.4060639880952  37.1636284722222 26.7127976190476  33.69140625 29  C 37.1636284722222 31.2872023809524  40.0553385416667 34.5939360119048  42.3665364583333 38.9202008928571  C 44.677734375 43.2464657738095  45.8333333333333 48.2254464285714  45.8333333333333 53.8571428571429  L 48.9583333333333 53.8571428571429  C 49.2621527777778 53.8571428571429  49.51171875 53.9542410714286  49.70703125 54.1484375  C 49.90234375 54.3426339285714  50 54.5907738095238  50 54.8928571428571  L 50 56.9642857142857  C 50 57.266369047619  49.90234375 57.5145089285714  49.70703125 57.7087053571429  C 49.51171875 57.9029017857143  49.2621527777778 58  48.9583333333333 58  L 1.04166666666667 58  C 0.737847222222222 58  0.48828125 57.9029017857143  0.29296875 57.7087053571429  C 0.09765625 57.5145089285714  0 57.266369047619  0 56.9642857142857  L 0 54.8928571428571  C 0 54.5907738095238  0.09765625 54.3426339285714  0.29296875 54.1484375  C 0.48828125 53.9542410714286  0.737847222222222 53.8571428571429  1.04166666666667 53.8571428571429  L 4.16666666666667 53.8571428571429  C 4.16666666666667 48.2254464285714  5.322265625 43.2464657738095  7.63346354166667 38.9202008928571  C 9.94466145833333 34.5939360119048  12.8363715277778 31.2872023809524  16.30859375 29  C 12.8363715277778 26.7127976190476  9.94466145833333 23.4060639880952  7.63346354166667 19.0797991071429  C 5.322265625 14.7535342261905  4.16666666666667 9.77455357142857  4.16666666666667 4.14285714285714  L 1.04166666666667 4.14285714285714  C 0.737847222222222 4.14285714285714  0.48828125 4.04575892857143  0.29296875 3.8515625  C 0.09765625 3.65736607142857  0 3.40922619047619  0 3.10714285714286  L 0 1.03571428571429  C 0 0.733630952380947  0.09765625 0.485491071428571  0.29296875 0.291294642857141  C 0.48828125 0.0970982142857115  0.737847222222222 0  1.04166666666667 0  L 48.9583333333333 0  C 49.2621527777778 0  49.51171875 0.0970982142857115  49.70703125 0.291294642857141  C 49.90234375 0.485491071428571  50 0.733630952380947  50 1.03571428571429  L 50 3.10714285714286  C 50 3.40922619047619  49.90234375 3.65736607142857  49.70703125 3.8515625  C 49.51171875 4.04575892857143  49.2621527777778 4.14285714285714  48.9583333333333 4.14285714285714  Z M 27.4576822916667 27.8186383928571  C 27.7072482638889 27.4626116071429  28.0381944444444 27.2090773809524  28.4505208333333 27.0580357142857  C 30.1215277777778 26.4322916666667  31.73828125 25.434337797619  33.30078125 24.0641741071429  C 34.86328125 22.6940104166667  36.2684461805556 21.0487351190476  37.5162760416667 19.1283482142857  C 38.7641059027778 17.2079613095238  39.7677951388889 14.9423363095238  40.52734375 12.3314732142857  C 41.2868923611111 9.72061011904762  41.6666666666667 6.99107142857143  41.6666666666667 5  L 8.33333333333333 5  C 8.33333333333333 6.99107142857143  8.71310763888889 9.72061011904762  9.47265625 12.3314732142857  C 10.2322048611111 14.9423363095238  11.2358940972222 17.2079613095238  12.4837239583333 19.1283482142857  C 13.7315538194444 21.0487351190476  15.13671875 22.6940104166667  16.69921875 24.0641741071429  C 18.26171875 25.434337797619  19.8784722222222 26.4322916666667  21.5494791666667 27.0580357142857  C 21.9618055555556 27.2090773809524  22.2927517361111 27.4626116071429  22.5423177083333 27.8186383928571  C 22.7918836805556 28.1746651785714  22.9166666666667 28.5684523809524  22.9166666666667 29  C 22.9166666666667 29.4315476190476  22.7918836805556 29.8253348214286  22.5423177083333 30.1813616071429  C 22.2927517361111 30.5373883928571  21.9618055555556 30.7909226190476  21.5494791666667 30.9419642857143  C 19.8784722222222 31.5677083333333  18.26171875 32.565662202381  16.69921875 33.9358258928571  C 15.13671875 35.3059895833333  13.7315538194444 36.9512648809524  12.4837239583333 38.8716517857143  C 11.2358940972222 40.7920386904762  10.2322048611111 43.0576636904762  9.47265625 45.6685267857143  C 8.71310763888889 48.2793898809524  8.33333333333333 51.0089285714286  8.33333333333333 53  L 41.6666666666667 53  C 41.6666666666667 51.0089285714286  41.2868923611111 48.2793898809524  40.52734375 45.6685267857143  C 39.7677951388889 43.0576636904762  38.7641059027778 40.7920386904762  37.5162760416667 38.8716517857143  C 36.2684461805556 36.9512648809524  34.86328125 35.3059895833333  33.30078125 33.9358258928571  C 31.73828125 32.565662202381  30.1215277777778 31.5677083333333  28.4505208333333 30.9419642857143  C 28.0381944444444 30.7909226190476  27.7072482638889 30.5373883928571  27.4576822916667 30.1813616071429  C 27.2081163194444 29.8253348214286  27.0833333333333 29.4315476190476  27.0833333333333 29  C 27.0833333333333 28.5684523809524  27.2081163194444 28.1746651785714  27.4576822916667 27.8186383928571  Z " fill-rule="nonzero" fill="#1c1a6d" stroke="none" transform="matrix(1 0 0 1 457 1616 )" />
  </g>
</svg>