<?xml version="1.0" encoding="utf-8"?>
<svg version="1.1" xmlns:xlink="http://www.w3.org/1999/xlink" width="60px" height="60px" xmlns="http://www.w3.org/2000/svg">
  <g transform="matrix(1 0 0 1 -1203 -1401 )">
    <path d="M 37.0703125 22.9296875  C 39.0234375 24.8828125  40 27.2395833333333  40 30  C 40 32.7604166666667  39.0234375 35.1171875  37.0703125 37.0703125  C 35.1171875 39.0234375  32.7604166666667 40  30 40  C 27.2395833333333 40  24.8828125 39.0234375  22.9296875 37.0703125  C 20.9765625 35.1171875  20 32.7604166666667  20 30  C 20 27.2395833333333  20.9765625 24.8828125  22.9296875 22.9296875  C 24.8828125 20.9765625  27.2395833333333 20  30 20  C 32.7604166666667 20  35.1171875 20.9765625  37.0703125 22.9296875  Z M 40.60546875 40.60546875  C 43.53515625 37.67578125  45 34.140625  45 30  C 45 25.859375  43.53515625 22.32421875  40.60546875 19.39453125  C 37.67578125 16.46484375  34.140625 15  30 15  C 25.859375 15  22.32421875 16.46484375  19.39453125 19.39453125  C 16.46484375 22.32421875  15 25.859375  15 30  C 15 34.140625  16.46484375 37.67578125  19.39453125 40.60546875  C 22.32421875 43.53515625  25.859375 45  30 45  C 34.140625 45  37.67578125 43.53515625  40.60546875 40.60546875  Z M 44.140625 15.859375  C 48.046875 19.765625  50 24.4791666666667  50 30  C 50 35.5208333333333  48.046875 40.234375  44.140625 44.140625  C 40.234375 48.046875  35.5208333333333 50  30 50  C 24.4791666666667 50  19.765625 48.046875  15.859375 44.140625  C 11.953125 40.234375  10 35.5208333333333  10 30  C 10 24.4791666666667  11.953125 19.765625  15.859375 15.859375  C 19.765625 11.953125  24.4791666666667 10  30 10  C 35.5208333333333 10  40.234375 11.953125  44.140625 15.859375  Z M 53.0078125 39.70703125  C 54.3359375 36.62109375  55 33.3854166666667  55 30  C 55 26.6145833333333  54.3359375 23.37890625  53.0078125 20.29296875  C 51.6796875 17.20703125  49.90234375 14.55078125  47.67578125 12.32421875  C 45.44921875 10.09765625  42.79296875 8.3203125  39.70703125 6.9921875  C 36.62109375 5.6640625  33.3854166666667 5  30 5  C 26.6145833333333 5  23.37890625 5.6640625  20.29296875 6.9921875  C 17.20703125 8.3203125  14.55078125 10.09765625  12.32421875 12.32421875  C 10.09765625 14.55078125  8.3203125 17.20703125  6.9921875 20.29296875  C 5.6640625 23.37890625  5 26.6145833333333  5 30  C 5 33.3854166666667  5.6640625 36.62109375  6.9921875 39.70703125  C 8.3203125 42.79296875  10.09765625 45.44921875  12.32421875 47.67578125  C 14.55078125 49.90234375  17.20703125 51.6796875  20.29296875 53.0078125  C 23.37890625 54.3359375  26.6145833333333 55  30 55  C 33.3854166666667 55  36.62109375 54.3359375  39.70703125 53.0078125  C 42.79296875 51.6796875  45.44921875 49.90234375  47.67578125 47.67578125  C 49.90234375 45.44921875  51.6796875 42.79296875  53.0078125 39.70703125  Z M 55.9765625 14.94140625  C 58.6588541666667 19.5377604166667  60 24.5572916666667  60 30  C 60 35.4427083333333  58.6588541666667 40.4622395833333  55.9765625 45.05859375  C 53.2942708333333 49.6549479166667  49.6549479166667 53.2942708333333  45.05859375 55.9765625  C 40.4622395833333 58.6588541666667  35.4427083333333 60  30 60  C 24.5572916666667 60  19.5377604166667 58.6588541666667  14.94140625 55.9765625  C 10.3450520833333 53.2942708333333  6.70572916666667 49.6549479166667  4.0234375 45.05859375  C 1.34114583333333 40.4622395833333  0 35.4427083333333  0 30  C 0 24.5572916666667  1.34114583333333 19.5377604166667  4.0234375 14.94140625  C 6.70572916666667 10.3450520833333  10.3450520833333 6.70572916666666  14.94140625 4.0234375  C 19.5377604166667 1.34114583333333  24.5572916666667 0  30 0  C 35.4427083333333 0  40.4622395833333 1.34114583333333  45.05859375 4.0234375  C 49.6549479166667 6.70572916666666  53.2942708333333 10.3450520833333  55.9765625 14.94140625  Z " fill-rule="nonzero" fill="#1c1a6d" stroke="none" fill-opacity="0.709803921568627" transform="matrix(1 0 0 1 1203 1401 )" />
  </g>
</svg>