<?xml version="1.0" encoding="utf-8"?>
<svg version="1.1" xmlns:xlink="http://www.w3.org/1999/xlink" width="100px" height="70px" xmlns="http://www.w3.org/2000/svg">
  <g transform="matrix(1 0 0 1 -517 -2208 )">
    <path d="M 99.8297445255475 35.0707291666667  C 99.8297445255475 35.0707291666667  99.8297445255475 18.7669270833333  97.7472627737226 10.9526302083333  C 96.601094890511 6.64143229166667  93.2240875912409 3.24606770833333  88.9363138686131 2.09380208333333  C 81.1644160583942 0  50 0  50 0  C 50 0  18.8357664233577 0  11.0636861313869 2.09380208333333  C 6.77591240875912 3.24625  3.39890510948905 6.64143229166667  2.25273722627737 10.9526302083333  C 0.170255474452556 18.7669270833333  0.170255474452556 35.0707291666667  0.170255474452556 35.0707291666667  C 0.170255474452556 35.0707291666667  0.170255474452556 51.37453125  2.25273722627737 59.188828125  C 3.39890510948905 63.5000260416667  6.77591240875912 66.7539322916667  11.0636861313869 67.9061979166667  C 18.8357664233577 70  50 70  50 70  C 50 70  81.1642335766423 70  88.9363138686131 67.9061979166667  C 93.2240875912409 66.7539322916667  96.601094890511 63.5000260416667  97.7472627737226 59.188828125  C 99.8297445255475 51.37453125  99.8297445255475 35.0707291666667  99.8297445255475 35.0707291666667  Z M 65.8547445255474 35.07109375  L 40 49.873359375  L 40 20.2680989583333  L 65.8547445255474 35.07109375  Z " fill-rule="nonzero" fill="#f95858" stroke="none" transform="matrix(1 0 0 1 517 2208 )" />
  </g>
</svg>