<?xml version="1.0" encoding="utf-8"?>
<svg version="1.1" xmlns:xlink="http://www.w3.org/1999/xlink" width="398px" height="89px" xmlns="http://www.w3.org/2000/svg">
  <defs>
    <filter x="37px" y="1008px" width="398px" height="89px" filterUnits="userSpaceOnUse" id="filter5">
      <feOffset dx="0" dy="2" in="SourceAlpha" result="shadowOffsetInner" />
      <feGaussianBlur stdDeviation="3" in="shadowOffsetInner" result="shadowGaussian" />
      <feComposite in2="shadowGaussian" operator="atop" in="SourceAlpha" result="shadowComposite" />
      <feColorMatrix type="matrix" values="0 0 0 0 0.733333333333333  0 0 0 0 0.733333333333333  0 0 0 0 0.733333333333333  0 0 0 0.956862745098039 0  " in="shadowComposite" />
    </filter>
    <g id="widget6">
      <path d="M 43.5 1016  A 3.5 3.5 0 0 1 47 1012.5 L 425 1012.5  A 3.5 3.5 0 0 1 428.5 1016 L 428.5 1085  A 3.5 3.5 0 0 1 425 1088.5 L 47 1088.5  A 3.5 3.5 0 0 1 43.5 1085 L 43.5 1016  Z " fill-rule="nonzero" fill="#ffffff" stroke="none" fill-opacity="0" />
      <path d="M 43.5 1016  A 3.5 3.5 0 0 1 47 1012.5 L 425 1012.5  A 3.5 3.5 0 0 1 428.5 1016 L 428.5 1085  A 3.5 3.5 0 0 1 425 1088.5 L 47 1088.5  A 3.5 3.5 0 0 1 43.5 1085 L 43.5 1016  Z " stroke-width="1" stroke="#bbbbbb" fill="none" />
    </g>
  </defs>
  <g transform="matrix(1 0 0 1 -37 -1008 )">
    <use xlink:href="#widget6" filter="url(#filter5)" />
    <use xlink:href="#widget6" />
  </g>
</svg>