<?xml version="1.0" encoding="utf-8"?>
<svg version="1.1" xmlns:xlink="http://www.w3.org/1999/xlink" width="38px" height="45px" xmlns="http://www.w3.org/2000/svg">
  <g transform="matrix(1 0 0 1 -791 -234 )">
    <path d="M 31.6666666666667 12.8571428571429  C 31.6666666666667 15.3180803571429  31.0151909722222 17.5948660714286  29.7122395833333 19.6875  C 30.4874131944445 19.921875  31.2254774305556 20.2399553571429  31.9264322916667 20.6417410714286  C 32.6273871527778 21.0435267857143  33.361328125 21.6545758928571  34.1282552083333 22.4748883928571  C 34.8951822916667 23.2952008928571  35.55078125 24.2619977678571  36.0950520833333 25.3752790178571  C 36.6393229166667 26.4885602678571  37.0928819444445 27.9282924107143  37.4557291666667 29.6944754464286  C 37.8185763888889 31.4606584821429  38 33.4402901785714  38 35.6333705357143  C 38 38.2114955357143  37.1753472222222 40.4171316964286  35.5260416666667 42.2502790178571  C 33.8767361111111 44.0834263392857  31.8893229166667 45  29.5638020833333 45  L 8.43619791666667 45  C 6.11067708333333 45  4.12326388888889 44.0834263392857  2.47395833333333 42.2502790178571  C 0.824652777777778 40.4171316964286  0 38.2114955357143  0 35.6333705357143  C 0 33.4402901785714  0.181423611111111 31.4606584821429  0.544270833333333 29.6944754464286  C 0.907118055555556 27.9282924107143  1.36067708333333 26.4885602678571  1.90494791666667 25.3752790178571  C 2.44921875 24.2619977678571  3.10481770833333 23.2952008928571  3.87174479166667 22.4748883928571  C 4.638671875 21.6545758928571  5.37261284722222 21.0435267857143  6.07356770833333 20.6417410714286  C 6.77452256944444 20.2399553571429  7.51258680555556 19.921875  8.28776041666667 19.6875  C 6.98480902777778 17.5948660714286  6.33333333333333 15.3180803571429  6.33333333333333 12.8571428571429  C 6.33333333333333 11.1160714285714  6.66731770833333 9.45452008928571  7.33528645833333 7.87248883928571  C 8.00325520833333 6.29045758928571  8.90625 4.921875  10.0442708333333 3.76674107142857  C 11.1822916666667 2.61160714285714  12.5305989583333 1.69503348214286  14.0891927083333 1.01702008928571  C 15.6477864583333 0.339006696428569  17.2847222222222 0  19 0  C 20.7152777777778 0  22.3522135416667 0.339006696428569  23.9108072916667 1.01702008928571  C 25.4694010416667 1.69503348214286  26.8177083333333 2.61160714285714  27.9557291666667 3.76674107142857  C 29.09375 4.921875  29.9967447916667 6.29045758928571  30.6647135416667 7.87248883928571  C 31.3326822916667 9.45452008928571  31.6666666666667 11.1160714285714  31.6666666666667 12.8571428571429  Z M 25.716796875 6.03934151785714  C 23.861328125 4.15597098214286  21.6223958333333 3.21428571428571  19 3.21428571428571  C 16.3776041666667 3.21428571428571  14.138671875 4.15597098214286  12.283203125 6.03934151785714  C 10.427734375 7.92271205357143  9.5 10.1953125  9.5 12.8571428571429  C 9.5 15.5189732142857  10.427734375 17.7915736607143  12.283203125 19.6749441964286  C 14.138671875 21.5583147321429  16.3776041666667 22.5  19 22.5  C 21.6223958333333 22.5  23.861328125 21.5583147321429  25.716796875 19.6749441964286  C 27.572265625 17.7915736607143  28.5 15.5189732142857  28.5 12.8571428571429  C 28.5 10.1953125  27.572265625 7.92271205357143  25.716796875 6.03934151785714  Z M 8.43619791666667 41  L 29.5638020833333 41  C 31.0151909722222 41.7857142857143  32.2562934027778 41.1872209821429  33.287109375 39.990234375  C 34.3179253472222 38.7932477678571  34.8333333333333 37.3409598214286  34.8333333333333 35.6333705357143  C 34.8333333333333 31.6322544642857  34.1859809027778 28.4765625  32.8912760416667 26.1662946428571  C 31.5965711805556 23.8560267857143  29.7369791666667 22.6422991071429  27.3125 22.5251116071429  C 24.9210069444444 24.6512276785714  22.1501736111111 25.7142857142857  19 25.7142857142857  C 15.8498263888889 25.7142857142857  13.0789930555556 24.6512276785714  10.6875 22.5251116071429  C 8.26302083333333 22.6422991071429  6.40342881944444 23.8560267857143  5.10872395833333 26.1662946428571  C 3.81401909722222 28.4765625  3.16666666666667 31.6322544642857  3.16666666666667 35.6333705357143  C 3.16666666666667 37.3409598214286  3.68207465277778 38.7932477678571  4.712890625 39.990234375  C 5.74370659722222 41.1872209821429  6.98480902777778 41.7857142857143  8.43619791666667 41  Z " fill-rule="nonzero" fill="#a09d9d" stroke="none" transform="matrix(1 0 0 1 791 234 )" />
  </g>
</svg>