<?xml version="1.0" encoding="utf-8"?>
<svg version="1.1" xmlns:xlink="http://www.w3.org/1999/xlink" width="45px" height="42px" xmlns="http://www.w3.org/2000/svg">
  <g transform="matrix(1 0 0 1 -790 -310 )">
    <path d="M 0 9  L 22.5 0  L 45 9  L 45 12  L 42 12  C 42 12.40625  41.83984375 12.7578125  41.51953125 13.0546875  C 41.19921875 13.3515625  40.8203125 13.5  40.3828125 14  L 4.6171875 14  C 4.1796875 13.5  3.80078125 13.3515625  3.48046875 13.0546875  C 3.16015625 12.7578125  3 12.40625  3 12  L 0 12  L 0 9  Z M 6 33  L 6 15  L 12 15  L 12 33  L 15 33  L 15 15  L 21 15  L 21 33  L 24 33  L 24 15  L 30 15  L 30 33  L 33 33  L 33 15  L 39 15  L 39 33  L 40.3828125 33  C 40.8203125 33  41.19921875 33.1484375  41.51953125 33.4453125  C 41.83984375 33.7421875  42 34.09375  42 34.5  L 42 36  L 3 36  L 3 34.5  C 3 34.09375  3.16015625 33.7421875  3.48046875 33.4453125  C 3.80078125 33.1484375  4.1796875 33  4.6171875 33  L 6 33  Z M 1.6171875 37  L 43.3828125 37  C 43.8203125 37.5  44.19921875 37.6484375  44.51953125 37.9453125  C 44.83984375 38.2421875  45 38.59375  45 39  L 45 42  L 0 42  L 0 39  C 0 38.59375  0.16015625 38.2421875  0.48046875 37.9453125  C 0.80078125 37.6484375  1.1796875 37.5  1.6171875 37  Z " fill-rule="nonzero" fill="#a09d9d" stroke="none" transform="matrix(1 0 0 1 790 310 )" />
  </g>
</svg>