<?xml version="1.0" encoding="utf-8"?>
<svg version="1.1" xmlns:xlink="http://www.w3.org/1999/xlink" width="255px" height="255px" xmlns="http://www.w3.org/2000/svg">
  <g transform="matrix(1 0 0 1 -269 -256 )">
    <path d="M 269 256  L 524 256  L 524 511  L 269 511  L 269 256  " fill-rule="nonzero" fill="#cccccc" stroke="none" />
    <path d="M 287 274  L 506 274  L 506 493  L 287 493  L 287 274  " fill-rule="nonzero" fill="#ffffff" stroke="none" />
    <path d="M 420.725 332.5  C 410.015 332.5  401.6 324.085  401.6 313.375  C 401.6 302.665  410.015 294.25  420.725 294.25  C 431.435 294.25  439.85 302.665  439.85 313.375  C 439.85 324.085  431.435 332.5  420.725 332.5  " fill-rule="nonzero" fill="#cccccc" stroke="none" />
    <path d="M 294 487  L 294 373.7  L 345.5 322.2  L 417.6 363.4  L 458.8 353.1  L 500 363.4  L 500 487  L 294 487  " fill-rule="nonzero" fill="#169bd5" stroke="none" />
  </g>
</svg>