<?xml version="1.0" encoding="utf-8"?>
<svg version="1.1" xmlns:xlink="http://www.w3.org/1999/xlink" width="36px" height="45px" xmlns="http://www.w3.org/2000/svg">
  <g transform="matrix(1 0 0 1 -804 -376 )">
    <path d="M 10 14.3181818181818  L 10 21  L 26 21  L 26 14.3181818181818  C 26 12.0596590909091  25.21875 10.1313920454545  23.65625 8.53338068181818  C 22.09375 6.93536931818182  20.2083333333333 6.13636363636364  18 6.13636363636364  C 15.7916666666667 6.13636363636364  13.90625 6.93536931818182  12.34375 8.53338068181818  C 10.78125 10.1313920454545  10 12.0596590909091  10 14.3181818181818  Z M 35.125 21.3494318181818  C 35.7083333333333 21.9460227272727  36 22.6704545454545  36 23.5227272727273  L 36 41.9318181818182  C 36 42.7840909090909  35.7083333333333 43.5085227272727  35.125 44.1051136363636  C 34.5416666666667 44.7017045454545  33.8333333333333 45  33 45  L 3 45  C 2.16666666666667 45  1.45833333333333 44.7017045454545  0.875 44.1051136363636  C 0.291666666666667 43.5085227272727  0 42.7840909090909  0 41.9318181818182  L 0 23.5227272727273  C 0 22.6704545454545  0.291666666666667 21.9460227272727  0.875 21.3494318181818  C 1.45833333333333 20.7528409090909  2.16666666666667 20.4545454545455  3 20.4545454545455  L 4 20.4545454545455  L 4 14.3181818181818  C 4 10.3977272727273  5.375 7.03125  8.125 4.21875  C 10.875 1.40625  14.1666666666667 0  18 0  C 21.8333333333333 0  25.125 1.40625  27.875 4.21875  C 30.625 7.03125  32 10.3977272727273  32 14.3181818181818  L 32 20.4545454545455  L 33 20.4545454545455  C 33.8333333333333 20.4545454545455  34.5416666666667 20.7528409090909  35.125 21.3494318181818  Z " fill-rule="nonzero" fill="#bbbbbb" stroke="none" transform="matrix(1 0 0 1 804 376 )" />
  </g>
</svg>