<?xml version="1.0" encoding="utf-8"?>
<svg version="1.1" xmlns:xlink="http://www.w3.org/1999/xlink" width="55px" height="55px" xmlns="http://www.w3.org/2000/svg">
  <g transform="matrix(1 0 0 1 -1800 -40 )">
    <path d="M 38.4263392857143 48.3858816964286  C 41.8024553571429 46.5955171130952  44.5749627976191 44.1657366071429  46.7438616071429 41.0965401785714  C 46.2937127976191 37.9250372023809  45.3985305059524 35.2906436011905  44.0583147321429 33.193359375  C 42.7180989583333 31.0960751488095  40.8305431547619 29.8837425595238  38.3956473214286 29.5563616071429  C 37.0247395833333 31.0704985119048  35.3929501488095 32.2521391369048  33.5002790178571 33.1012834821429  C 31.6076078869048 33.9504278273809  29.6075148809524 34.375  27.5 34.375  C 25.3924851190476 34.375  23.3923921130952 33.9504278273809  21.4997209821429 33.1012834821429  C 19.6070498511905 32.2521391369048  17.9752604166667 31.0704985119048  16.6043526785714 29.5563616071429  C 14.1694568452381 29.8837425595238  12.2819010416667 31.0960751488095  10.9416852678571 33.193359375  C 9.60146949404762 35.2906436011905  8.70628720238095 37.9250372023809  8.25613839285714 41.0965401785714  C 10.425037202381 44.1657366071429  13.1975446428571 46.5955171130952  16.5736607142857 48.3858816964286  C 19.9497767857143 50.1762462797619  23.5918898809524 51.0714285714286  27.5 51.0714285714286  C 31.4081101190476 51.0714285714286  35.0502232142857 50.1762462797619  38.4263392857143 48.3858816964286  Z M 35.8328683035714 27.9757254464286  C 38.134765625 25.673828125  39.2857142857143 22.8962053571429  39.2857142857143 19.6428571428571  C 39.2857142857143 16.3895089285714  38.134765625 13.6118861607143  35.8328683035714 11.3099888392857  C 33.5309709821429 9.00809151785714  30.7533482142857 7.85714285714286  27.5 7.85714285714286  C 24.2466517857143 7.85714285714286  21.4690290178571 9.00809151785714  19.1671316964286 11.3099888392857  C 16.865234375 13.6118861607143  15.7142857142857 16.3895089285714  15.7142857142857 19.6428571428571  C 15.7142857142857 22.8962053571429  16.865234375 25.673828125  19.1671316964286 27.9757254464286  C 21.4690290178571 30.2776227678571  24.2466517857143 31.4285714285714  27.5 31.4285714285714  C 30.7533482142857 31.4285714285714  33.5309709821429 30.2776227678571  35.8328683035714 27.9757254464286  Z M 52.8208705357143 16.8191964285714  C 54.2736235119048 20.2157738095238  55 23.7760416666667  55 27.5  C 55 31.2239583333333  54.2736235119048 34.7791108630952  52.8208705357143 38.1654575892857  C 51.3681175595238 41.5518043154762  49.419177827381 44.4777715773809  46.9740513392857 46.943359375  C 44.5289248511905 49.408947172619  41.6080729166667 51.3681175595238  38.2114955357143 52.8208705357143  C 34.8149181547619 54.2736235119048  31.2444196428571 55  27.5 55  C 23.7760416666667 55  20.2157738095238 54.2736235119048  16.8191964285714 52.8208705357143  C 13.422619047619 51.3681175595238  10.4966517857143 49.4140625  8.04129464285714 46.9587053571429  C 5.5859375 44.5033482142857  3.63188244047619 41.5773809523809  2.17912946428571 38.1808035714286  C 0.726376488095238 34.7842261904762  0 31.2239583333333  0 27.5  C 0 23.7760416666667  0.726376488095238 20.2157738095238  2.17912946428571 16.8191964285714  C 3.63188244047619 13.422619047619  5.5859375 10.4966517857143  8.04129464285714 8.04129464285714  C 10.4966517857143 5.5859375  13.422619047619 3.63188244047619  16.8191964285714 2.17912946428571  C 20.2157738095238 0.726376488095238  23.7760416666667 0  27.5 0  C 31.2239583333333 0  34.7842261904762 0.726376488095238  38.1808035714286 2.17912946428571  C 41.577380952381 3.63188244047619  44.5033482142857 5.5859375  46.9587053571429 8.04129464285714  C 49.4140625 10.4966517857143  51.3681175595238 13.422619047619  52.8208705357143 16.8191964285714  Z " fill-rule="nonzero" fill="#f95858" stroke="none" transform="matrix(1 0 0 1 1800 40 )" />
  </g>
</svg>