<?xml version="1.0" encoding="utf-8"?>
<svg version="1.1" xmlns:xlink="http://www.w3.org/1999/xlink" width="64px" height="64px" xmlns="http://www.w3.org/2000/svg">
  <g transform="matrix(1 0 0 1 -248 -1686 )">
    <path d="M 4.11199999999997 17.1122144985104  L 18.816 4.86196623634555  L 14.704 0  L 0 12.2502482621649  L 4.11199999999997 17.1122144985104  Z M 59.888 17.1281032770606  L 64 12.266137040715  L 49.2959999999999 0.0158887785501065  L 45.184 4.87785501489577  L 59.888 17.1281032770606  Z M 60.8 35.4001986097318  C 60.8 19.6067527308838  47.904 6.80039721946378  31.984 6.80039721946378  C 16.064 6.80039721946378  3.19999999999999 19.6067527308838  3.19999999999999 35.4001986097318  C 3.19999999999999 51.1936444885799  16.064 64  31.984 64  C 47.904 64  60.8 51.1936444885799  60.8 35.4001986097318  Z M 54.4 35.4001986097318  C 54.4 47.6822244289971  44.384 57.6444885799404  32 57.6444885799404  C 19.632 57.6444885799404  9.60000000000002 47.6822244289971  9.60000000000002 35.4001986097318  C 9.60000000000002 23.1181727904667  19.632 13.1559086395234  32 13.1559086395234  C 44.3680000000001 13.1559086395234  54.4 23.1181727904667  54.4 35.4001986097318  Z M 35.2 32.2224428997021  L 35.2 22.6891757696127  L 28.8 22.6891757696127  L 28.8 32.2224428997021  L 19.2 32.2224428997021  L 19.2 38.5779543197617  L 28.8 38.5779543197617  L 28.8 48.111221449851  L 35.2 48.111221449851  L 35.2 38.5779543197617  L 44.8 38.5779543197617  L 44.8 32.2224428997021  L 35.2 32.2224428997021  Z " fill-rule="nonzero" fill="#1c1a6d" stroke="none" fill-opacity="0.709803921568627" transform="matrix(1 0 0 1 248 1686 )" />
  </g>
</svg>