<?xml version="1.0" encoding="utf-8"?>
<svg version="1.1" xmlns:xlink="http://www.w3.org/1999/xlink" width="71px" height="52px" xmlns="http://www.w3.org/2000/svg">
  <g transform="matrix(1 0 0 1 -1496 -1533 )">
    <path d="M 71 26  L 58.0909090909091 13  L 45.1818181818182 26  L 54.8636363636363 26  C 54.8636363636363 36.77375  46.1984090909091 45.5  35.5 45.5  C 32.2243181818182 45.5  29.1584090909091 44.67125  26.4475 43.24125  L 21.7356818181818 47.98625  C 25.7375 50.505  30.4331818181818 52  35.5 52  C 49.7645454545455 52  61.3181818181818 40.365  61.3181818181818 26  L 71 26  Z M 25.8181818181818 26  L 16.1363636363636 26  C 16.1363636363636 15.22625  24.8015909090909 6.49999999999999  35.5 6.49999999999999  C 38.7756818181818 6.49999999999999  41.8415909090909 7.32875  44.5525 8.75875000000003  L 49.2643181818182 4.01375000000003  C 45.2625 1.49499999999997  40.5668181818182 0  35.5 0  C 21.2354545454545 0  9.68181818181817 11.635  9.68181818181817 26  L 0 26  L 12.9090909090909 39  L 25.8181818181818 26  Z " fill-rule="nonzero" fill="#1c1a6d" stroke="none" fill-opacity="0.709803921568627" transform="matrix(1 0 0 1 1496 1533 )" />
  </g>
</svg>