<?xml version="1.0" encoding="utf-8"?>
<svg version="1.1" xmlns:xlink="http://www.w3.org/1999/xlink" width="30px" height="30px" xmlns="http://www.w3.org/2000/svg">
  <g transform="matrix(1 0 0 1 -1094 -33 )">
    <path d="M 21 11.1225  L 18.8775 9  L 15 12.8775  L 11.1225 9  L 9 11.1225  L 12.8775 15  L 9 18.8775  L 11.1225 21  L 15 17.1225  L 18.8775 21  L 21 18.8775  L 17.1225 15  L 21 11.1225  Z M 30 15  C 30 6.7125  23.2875 0  15 0  C 6.7125 0  0 6.7125  0 15  C 0 23.2875  6.7125 30  15 30  C 23.2875 30  30 23.2875  30 15  Z M 27 15  C 27 21.615  21.615 27  15 27  C 8.385 27  3 21.615  3 15  C 3 8.385  8.385 3  15 3  C 21.615 3  27 8.385  27 15  Z " fill-rule="nonzero" fill="#ff0000" stroke="none" transform="matrix(1 0 0 1 1094 33 )" />
  </g>
</svg>