<?xml version="1.0" encoding="utf-8"?>
<svg version="1.1" xmlns:xlink="http://www.w3.org/1999/xlink" width="33px" height="33px" xmlns="http://www.w3.org/2000/svg">
  <g transform="matrix(1 0 0 1 -385 -33 )">
    <path d="M 33 30.188679245283  L 23.5849056603774 20.7547169811321  L 22.0849056603774 20.7547169811321  L 21.5660377358491 20.2358490566038  C 23.4150943396226 18.0943396226415  24.5283018867925 15.311320754717  24.5283018867925 12.2641509433962  C 24.5283018867925 5.49056603773585  19.0377358490566 0  12.2641509433962 0  C 5.49056603773585 0  0 5.49056603773585  0 12.2641509433962  C 0 19.0377358490566  5.49056603773585 24.5283018867925  12.2641509433962 24.5283018867925  C 15.311320754717 24.5283018867925  18.0943396226415 23.4150943396226  20.2358490566038 21.5754716981132  L 20.7547169811321 22.0943396226415  L 20.7547169811321 23.5849056603774  L 30.188679245283 33  L 33 30.188679245283  Z M 20.7547169811321 12.2641509433962  C 20.7547169811321 16.9528301886792  16.9528301886792 20.7547169811321  12.2641509433962 20.7547169811321  C 7.57547169811321 20.7547169811321  3.77358490566038 16.9528301886792  3.77358490566038 12.2641509433962  C 3.77358490566038 7.57547169811321  7.57547169811321 3.77358490566038  12.2641509433962 3.77358490566038  C 16.9528301886792 3.77358490566038  20.7547169811321 7.57547169811321  20.7547169811321 12.2641509433962  Z " fill-rule="nonzero" fill="#ff0000" stroke="none" transform="matrix(1 0 0 1 385 33 )" />
  </g>
</svg>