<?xml version="1.0" encoding="utf-8"?>
<svg version="1.1" xmlns:xlink="http://www.w3.org/1999/xlink" width="58px" height="58px" xmlns="http://www.w3.org/2000/svg">
  <g transform="matrix(1 0 0 1 -1052 -1023 )">
    <path d="M 35.8346354166667 22.1653645833333  C 37.72265625 24.0533854166667  38.6666666666667 26.3315972222222  38.6666666666667 29  C 38.6666666666667 31.6684027777778  37.72265625 33.9466145833333  35.8346354166667 35.8346354166667  C 33.9466145833333 37.72265625  31.6684027777778 38.6666666666667  29 38.6666666666667  C 26.3315972222222 38.6666666666667  24.0533854166667 37.72265625  22.1653645833333 35.8346354166667  C 20.27734375 33.9466145833333  19.3333333333333 31.6684027777778  19.3333333333333 29  C 19.3333333333333 26.3315972222222  20.27734375 24.0533854166667  22.1653645833333 22.1653645833333  C 24.0533854166667 20.27734375  26.3315972222222 19.3333333333333  29 19.3333333333333  C 31.6684027777778 19.3333333333333  33.9466145833333 20.27734375  35.8346354166667 22.1653645833333  Z M 39.251953125 39.251953125  C 42.083984375 36.419921875  43.5 33.0026041666667  43.5 29  C 43.5 24.9973958333333  42.083984375 21.580078125  39.251953125 18.748046875  C 36.419921875 15.916015625  33.0026041666667 14.5  29 14.5  C 24.9973958333333 14.5  21.580078125 15.916015625  18.748046875 18.748046875  C 15.916015625 21.580078125  14.5 24.9973958333333  14.5 29  C 14.5 33.0026041666667  15.916015625 36.419921875  18.748046875 39.251953125  C 21.580078125 42.083984375  24.9973958333333 43.5  29 43.5  C 33.0026041666667 43.5  36.419921875 42.083984375  39.251953125 39.251953125  Z M 42.6692708333333 15.3307291666667  C 46.4453125 19.1067708333333  48.3333333333333 23.6631944444444  48.3333333333333 29  C 48.3333333333333 34.3368055555556  46.4453125 38.8932291666667  42.6692708333333 42.6692708333333  C 38.8932291666667 46.4453125  34.3368055555556 48.3333333333333  29 48.3333333333333  C 23.6631944444444 48.3333333333333  19.1067708333333 46.4453125  15.3307291666667 42.6692708333333  C 11.5546875 38.8932291666667  9.66666666666667 34.3368055555556  9.66666666666667 29  C 9.66666666666667 23.6631944444444  11.5546875 19.1067708333333  15.3307291666667 15.3307291666667  C 19.1067708333333 11.5546875  23.6631944444444 9.66666666666666  29 9.66666666666666  C 34.3368055555556 9.66666666666666  38.8932291666667 11.5546875  42.6692708333333 15.3307291666667  Z M 51.2408854166667 38.3834635416667  C 52.5247395833333 35.400390625  53.1666666666667 32.2725694444445  53.1666666666667 29  C 53.1666666666667 25.7274305555556  52.5247395833333 22.599609375  51.2408854166667 19.6165364583333  C 49.95703125 16.6334635416667  48.2389322916667 14.0657552083333  46.0865885416667 11.9134114583333  C 43.9342447916667 9.76106770833334  41.3665364583333 8.04296875  38.3834635416667 6.75911458333334  C 35.400390625 5.47526041666666  32.2725694444445 4.83333333333334  29 4.83333333333334  C 25.7274305555556 4.83333333333334  22.599609375 5.47526041666666  19.6165364583333 6.75911458333334  C 16.6334635416667 8.04296875  14.0657552083333 9.76106770833334  11.9134114583333 11.9134114583333  C 9.76106770833333 14.0657552083333  8.04296875 16.6334635416667  6.75911458333333 19.6165364583333  C 5.47526041666667 22.599609375  4.83333333333333 25.7274305555556  4.83333333333333 29  C 4.83333333333333 32.2725694444445  5.47526041666667 35.400390625  6.75911458333333 38.3834635416667  C 8.04296875 41.3665364583333  9.76106770833333 43.9342447916667  11.9134114583333 46.0865885416667  C 14.0657552083333 48.2389322916667  16.6334635416667 49.95703125  19.6165364583333 51.2408854166667  C 22.599609375 52.5247395833333  25.7274305555556 53.1666666666667  29 53.1666666666667  C 32.2725694444445 53.1666666666667  35.400390625 52.5247395833333  38.3834635416667 51.2408854166667  C 41.3665364583333 49.95703125  43.9342447916667 48.2389322916667  46.0865885416667 46.0865885416667  C 48.2389322916667 43.9342447916667  49.95703125 41.3665364583333  51.2408854166667 38.3834635416667  Z M 54.1106770833333 14.443359375  C 56.7035590277778 18.8865017361111  58 23.7387152777778  58 29  C 58 34.2612847222222  56.7035590277778 39.1134982638889  54.1106770833333 43.556640625  C 51.5177951388889 47.9997829861111  47.9997829861111 51.5177951388889  43.556640625 54.1106770833333  C 39.1134982638889 56.7035590277778  34.2612847222222 58  29 58  C 23.7387152777778 58  18.8865017361111 56.7035590277778  14.443359375 54.1106770833333  C 10.0002170138889 51.5177951388889  6.48220486111111 47.9997829861111  3.88932291666667 43.556640625  C 1.29644097222222 39.1134982638889  0 34.2612847222222  0 29  C 0 23.7387152777778  1.29644097222222 18.8865017361111  3.88932291666667 14.443359375  C 6.48220486111111 10.0002170138889  10.0002170138889 6.48220486111111  14.443359375 3.88932291666666  C 18.8865017361111 1.29644097222222  23.7387152777778 0  29 0  C 34.2612847222222 0  39.1134982638889 1.29644097222222  43.556640625 3.88932291666666  C 47.9997829861111 6.48220486111111  51.5177951388889 10.0002170138889  54.1106770833333 14.443359375  Z " fill-rule="nonzero" fill="#2d6d82" stroke="none" transform="matrix(1 0 0 1 1052 1023 )" />
  </g>
</svg>