<?xml version="1.0" encoding="utf-8"?>
<svg version="1.1" xmlns:xlink="http://www.w3.org/1999/xlink" width="58px" height="55px" xmlns="http://www.w3.org/2000/svg">
  <g transform="matrix(1 0 0 1 -1531 -1026 )">
    <path d="M 15.4666666666667 19.6428571428571  C 15.4666666666667 22.4869791666667  16.2822916666667 25.1060267857143  17.9135416666667 27.5  C 14.6510416666667 27.602306547619  11.9826388888889 28.9118303571429  9.90833333333333 31.4285714285714  L 5.86041666666667 31.4285714285714  C 4.20902777777778 31.4285714285714  2.81944444444445 31.0142299107143  1.69166666666667 30.185546875  C 0.563888888888889 29.3568638392857  0 28.14453125  0 26.5485491071429  C 0 19.3257068452381  1.24861111111111 15.7142857142857  3.74583333333333 15.7142857142857  C 3.86666666666667 15.7142857142857  4.3046875 15.9291294642857  5.05989583333333 16.3588169642857  C 5.81510416666667 16.7885044642857  6.796875 17.2233072916667  8.00520833333333 17.6632254464286  C 9.21354166666667 18.1031436011905  10.4118055555556 18.3231026785714  11.6 18.3231026785714  C 12.9493055555556 18.3231026785714  14.2885416666667 18.0877976190476  15.6177083333333 17.6171875  C 15.5170138888889 18.3742559523809  15.4666666666667 19.0494791666667  15.4666666666667 19.6428571428571  Z M 50.1609375 43.8741629464286  C 50.2314236111111 44.9074590773809  50.2666666666667 45.9663318452381  50.2666666666667 47.05078125  C 50.2666666666667 49.5061383928571  49.5315972222222 51.4448474702381  48.0614583333333 52.8669084821429  C 46.5913194444445 54.2889694940476  44.6378472222222 55  42.2010416666667 55  L 15.7989583333333 55  C 13.3621527777778 55  11.4086805555556 54.2889694940476  9.93854166666667 52.8669084821429  C 8.46840277777778 51.4448474702381  7.73333333333333 49.5061383928571  7.73333333333333 47.05078125  C 7.73333333333333 45.9663318452381  7.76857638888889 44.9074590773809  7.8390625 43.8741629464286  C 7.90954861111111 42.8408668154762  8.05052083333333 41.7257254464286  8.26197916666667 40.5287388392857  C 8.4734375 39.3317522321429  8.74027777777778 38.2217261904762  9.0625 37.1986607142857  C 9.38472222222222 36.1755952380952  9.81770833333333 35.1781063988095  10.3614583333333 34.2061941964286  C 10.9052083333333 33.2342819940476  11.5295138888889 32.4055989583333  12.234375 31.7201450892857  C 12.9392361111111 31.0346912202381  13.8001736111111 30.4873511904762  14.8171875 30.078125  C 15.8342013888889 29.6688988095238  16.9569444444444 29.4642857142857  18.1854166666667 29.4642857142857  C 18.3868055555556 29.4642857142857  18.8197916666667 29.6842447916667  19.484375 30.1241629464286  C 20.1489583333333 30.5640811011905  20.8840277777778 31.0551525297619  21.6895833333333 31.5973772321429  C 22.4951388888889 32.1396019345238  23.5725694444444 32.6306733630952  24.921875 33.0705915178571  C 26.2711805555556 33.5105096726191  27.6305555555556 33.73046875  29 33.73046875  C 30.3694444444444 33.73046875  31.7288194444444 33.5105096726191  33.078125 33.0705915178571  C 34.4274305555556 32.6306733630952  35.5048611111111 32.1396019345238  36.3104166666667 31.5973772321429  C 37.1159722222222 31.0551525297619  37.8510416666667 30.5640811011905  38.515625 30.1241629464286  C 39.1802083333333 29.6842447916667  39.6131944444444 29.4642857142857  39.8145833333333 29.4642857142857  C 41.0430555555556 29.4642857142857  42.1657986111111 29.6688988095238  43.1828125 30.078125  C 44.1998263888889 30.4873511904762  45.0607638888889 31.0346912202381  45.765625 31.7201450892857  C 46.4704861111111 32.4055989583333  47.0947916666667 33.2342819940476  47.6385416666667 34.2061941964286  C 48.1822916666667 35.1781063988095  48.6152777777778 36.1755952380952  48.9375 37.1986607142857  C 49.2597222222222 38.2217261904762  49.5265625 39.3317522321429  49.7380208333333 40.5287388392857  C 49.9494791666667 41.7257254464286  50.0904513888889 42.8408668154762  50.1609375 43.8741629464286  Z M 17.0677083333333 2.30189732142857  C 18.578125 3.83649553571429  19.3333333333333 5.68824404761904  19.3333333333333 7.85714285714286  C 19.3333333333333 10.0260416666667  18.578125 11.8777901785714  17.0677083333333 13.4123883928571  C 15.5572916666667 14.9469866071429  13.7347222222222 15.7142857142857  11.6 15.7142857142857  C 9.46527777777778 15.7142857142857  7.64270833333333 14.9469866071429  6.13229166666667 13.4123883928571  C 4.621875 11.8777901785714  3.86666666666667 10.0260416666667  3.86666666666667 7.85714285714286  C 3.86666666666667 5.68824404761904  4.621875 3.83649553571429  6.13229166666667 2.30189732142857  C 7.64270833333333 0.76729910714286  9.46527777777778 0  11.6 0  C 13.7347222222222 0  15.5572916666667 0.76729910714286  17.0677083333333 2.30189732142857  Z M 37.2015625 11.3099888392857  C 39.4671875 13.6118861607143  40.6 16.3895089285714  40.6 19.6428571428571  C 40.6 22.8962053571429  39.4671875 25.673828125  37.2015625 27.9757254464286  C 34.9359375 30.2776227678571  32.2020833333333 31.4285714285714  29 31.4285714285714  C 25.7979166666667 31.4285714285714  23.0640625 30.2776227678571  20.7984375 27.9757254464286  C 18.5328125 25.673828125  17.4 22.8962053571429  17.4 19.6428571428571  C 17.4 16.3895089285714  18.5328125 13.6118861607143  20.7984375 11.3099888392857  C 23.0640625 9.00809151785714  25.7979166666667 7.85714285714286  29 7.85714285714286  C 32.2020833333333 7.85714285714286  34.9359375 9.00809151785714  37.2015625 11.3099888392857  Z M 54.2541666666667 15.7142857142857  C 56.7513888888889 15.7142857142857  58 19.3257068452381  58 26.5485491071429  C 58 28.14453125  57.4361111111111 29.3568638392857  56.3083333333333 30.185546875  C 55.1805555555556 31.0142299107143  53.7909722222222 31.4285714285714  52.1395833333333 31.4285714285714  L 48.0916666666667 31.4285714285714  C 46.0173611111111 28.9118303571429  43.3489583333333 27.602306547619  40.0864583333333 27.5  C 41.7177083333333 25.1060267857143  42.5333333333333 22.4869791666667  42.5333333333333 19.6428571428571  C 42.5333333333333 19.0494791666667  42.4829861111111 18.3742559523809  42.3822916666667 17.6171875  C 43.7114583333333 18.0877976190476  45.0506944444444 18.3231026785714  46.4 18.3231026785714  C 47.5881944444444 18.3231026785714  48.7864583333333 18.1031436011905  49.9947916666667 17.6632254464286  C 51.203125 17.2233072916667  52.1848958333333 16.7885044642857  52.9401041666667 16.3588169642857  C 53.6953125 15.9291294642857  54.1333333333333 15.7142857142857  54.2541666666667 15.7142857142857  Z M 51.8677083333333 2.30189732142857  C 53.378125 3.83649553571429  54.1333333333333 5.68824404761904  54.1333333333333 7.85714285714286  C 54.1333333333333 10.0260416666667  53.378125 11.8777901785714  51.8677083333333 13.4123883928571  C 50.3572916666667 14.9469866071429  48.5347222222222 15.7142857142857  46.4 15.7142857142857  C 44.2652777777778 15.7142857142857  42.4427083333333 14.9469866071429  40.9322916666667 13.4123883928571  C 39.421875 11.8777901785714  38.6666666666667 10.0260416666667  38.6666666666667 7.85714285714286  C 38.6666666666667 5.68824404761904  39.421875 3.83649553571429  40.9322916666667 2.30189732142857  C 42.4427083333333 0.76729910714286  44.2652777777778 0  46.4 0  C 48.5347222222222 0  50.3572916666667 0.76729910714286  51.8677083333333 2.30189732142857  Z " fill-rule="nonzero" fill="#2d6d82" stroke="none" transform="matrix(1 0 0 1 1531 1026 )" />
  </g>
</svg>