<?xml version="1.0" encoding="utf-8"?>
<svg version="1.1" xmlns:xlink="http://www.w3.org/1999/xlink" width="48px" height="60px" xmlns="http://www.w3.org/2000/svg">
  <g transform="matrix(1 0 0 1 -95 -1147 )">
    <path d="M 46.875 48.2556818181818  C 47.625 49.1534090909091  48 50.1590909090909  48 51.2727272727273  C 48 52.7045454545455  47.3011363636364 53.9943181818182  45.9034090909091 55.1420454545455  C 44.5056818181818 56.2897727272727  42.6420454545455 57.2102272727273  40.3125 57.9034090909091  C 37.9829545454545 58.5965909090909  35.4261363636364 59.1193181818182  32.6420454545455 59.4715909090909  C 29.8579545454545 59.8238636363636  26.9772727272727 60  24 60  C 21.0227272727273 60  18.1420454545455 59.8238636363636  15.3579545454545 59.4715909090909  C 12.5738636363636 59.1193181818182  10.0170454545455 58.5965909090909  7.6875 57.9034090909091  C 5.35795454545455 57.2102272727273  3.49431818181818 56.2897727272727  2.09659090909091 55.1420454545455  C 0.698863636363636 53.9943181818182  0 52.7045454545455  0 51.2727272727273  C 0 50.1590909090909  0.375 49.1534090909091  1.125 48.2556818181818  C 1.875 47.3579545454545  2.90909090909091 46.6022727272727  4.22727272727273 45.9886363636364  C 5.54545454545455 45.375  6.88636363636364 44.8693181818182  8.25 44.4715909090909  C 9.61363636363636 44.0738636363636  11.1022727272727 43.7386363636364  12.7159090909091 43.4659090909091  C 13.3068181818182 43.3522727272727  13.8522727272727 43.4715909090909  14.3522727272727 43.8238636363636  C 14.8522727272727 44.1761363636364  15.1477272727273 44.6477272727273  15.2386363636364 45.2386363636364  C 15.3522727272727 45.8295454545455  15.2329545454545 46.375  14.8806818181818 46.875  C 14.5284090909091 47.375  14.0568181818182 47.6704545454545  13.4659090909091 47.7613636363636  C 12.1477272727273 47.9886363636364  10.9431818181818 48.2556818181818  9.85227272727273 48.5625  C 8.76136363636364 48.8693181818182  7.89204545454546 49.1590909090909  7.24431818181818 49.4318181818182  C 6.59659090909091 49.7045454545455  6.04545454545455 49.9715909090909  5.59090909090909 50.2329545454545  C 5.13636363636364 50.4943181818182  4.82386363636364 50.7159090909091  4.65340909090909 50.8977272727273  C 4.48295454545455 51.0795454545455  4.38636363636364 51.2159090909091  4.36363636363636 51.3068181818182  C 4.43181818181818 51.5568181818182  4.73863636363636 51.8579545454545  5.28409090909091 52.2102272727273  C 5.82954545454545 52.5625  6.65909090909091 52.9375  7.77272727272727 53.3352272727273  C 8.88636363636364 53.7329545454545  10.1818181818182 54.1022727272727  11.6590909090909 54.4431818181818  C 13.1363636363636 54.7840909090909  14.9602272727273 55.0681818181818  17.1306818181818 55.2954545454545  C 19.3011363636364 55.5227272727273  21.5909090909091 55.6363636363636  24 55.6363636363636  C 26.4090909090909 55.6363636363636  28.6988636363636 55.5227272727273  30.8693181818182 55.2954545454545  C 33.0397727272727 55.0681818181818  34.8636363636364 54.7840909090909  36.3409090909091 54.4431818181818  C 37.8181818181818 54.1022727272727  39.1136363636364 53.7272727272727  40.2272727272727 53.3181818181818  C 41.3409090909091 52.9090909090909  42.1704545454545 52.5284090909091  42.7159090909091 52.1761363636364  C 43.2613636363636 51.8238636363636  43.5681818181818 51.5113636363636  43.6363636363636 51.2386363636364  C 43.6136363636364 51.1477272727273  43.5170454545455 51.0227272727273  43.3465909090909 50.8636363636364  C 43.1761363636364 50.7045454545454  42.8636363636364 50.4886363636364  42.4090909090909 50.2159090909091  C 41.9545454545455 49.9431818181818  41.4034090909091 49.6761363636364  40.7556818181818 49.4147727272727  C 40.1079545454545 49.1534090909091  39.2386363636364 48.8693181818182  38.1477272727273 48.5625  C 37.0568181818182 48.2556818181818  35.8522727272727 47.9886363636364  34.5340909090909 47.7613636363636  C 33.9431818181818 47.6704545454545  33.4715909090909 47.375  33.1193181818182 46.875  C 32.7670454545455 46.375  32.6477272727273 45.8295454545455  32.7613636363636 45.2386363636364  C 32.8522727272727 44.6477272727273  33.1477272727273 44.1761363636364  33.6477272727273 43.8238636363636  C 34.1477272727273 43.4715909090909  34.6931818181818 43.3522727272727  35.2840909090909 43.4659090909091  C 36.8977272727273 43.7386363636364  38.3863636363636 44.0738636363636  39.75 44.4715909090909  C 41.1136363636364 44.8693181818182  42.4545454545455 45.375  43.7727272727273 45.9886363636364  C 45.0909090909091 46.6022727272727  46.125 47.3579545454545  46.875 48.2556818181818  Z M 33.6306818181818 17.6420454545455  C 34.4829545454545 18.4943181818182  34.9090909090909 19.5227272727273  35 20.7272727272727  L 35 33.8181818181818  C 34.9090909090909 34.4090909090909  34.6931818181818 34.9204545454545  34.2613636363636 35.3522727272727  C 33.8295454545455 35.7840909090909  33.3181818181818 36  32.7272727272727 36  L 30 36  L 30 49.0909090909091  C 30.5454545454545 49.6818181818182  30.3295454545455 50.1931818181818  29.8977272727273 50.625  C 29.4659090909091 51.0568181818182  28.9545454545455 51.2727272727273  28.3636363636364 51.2727272727273  L 19.6363636363636 51.2727272727273  C 19.0454545454545 51.2727272727273  18.5340909090909 51.0568181818182  18.1022727272727 50.625  C 17.6704545454545 50.1931818181818  17.4545454545455 49.6818181818182  18 49.0909090909091  L 18 36  L 15.2727272727273 36  C 14.6818181818182 36  14.1704545454545 35.7840909090909  13.7386363636364 35.3522727272727  C 13.3068181818182 34.9204545454545  13.0909090909091 34.4090909090909  13 33.8181818181818  L 13 20.7272727272727  C 13.0909090909091 19.5227272727273  13.5170454545455 18.4943181818182  14.3693181818182 17.6420454545455  C 15.2215909090909 16.7897727272727  16.25 16.3636363636364  17.4545454545455 17  L 30.5454545454545 17  C 31.75 16.3636363636364  32.7784090909091 16.7897727272727  33.6306818181818 17.6420454545455  Z M 29.4034090909091 2.23295454545455  C 30.8920454545455 3.7215909090909  31.6363636363636 5.52272727272727  31.6363636363636 7.63636363636364  C 31.6363636363636 9.75  30.8920454545455 11.5511363636364  29.4034090909091 13.0397727272727  C 27.9147727272727 14.5284090909091  26.1136363636364 15.2727272727273  24 15.2727272727273  C 21.8863636363636 15.2727272727273  20.0852272727273 14.5284090909091  18.5965909090909 13.0397727272727  C 17.1079545454545 11.5511363636364  16.3636363636364 9.75  16.3636363636364 7.63636363636364  C 16.3636363636364 5.52272727272727  17.1079545454545 3.7215909090909  18.5965909090909 2.23295454545455  C 20.0852272727273 0.744318181818178  21.8863636363636 0  24 0  C 26.1136363636364 0  27.9147727272727 0.744318181818178  29.4034090909091 2.23295454545455  Z " fill-rule="nonzero" fill="#2d6d82" stroke="none" transform="matrix(1 0 0 1 95 1147 )" />
  </g>
</svg>