<?xml version="1.0" encoding="utf-8"?>
<svg version="1.1" xmlns:xlink="http://www.w3.org/1999/xlink" width="53px" height="58px" xmlns="http://www.w3.org/2000/svg">
  <g transform="matrix(1 0 0 1 -1052 -1149 )">
    <path d="M 52.0338541666667 0.975961538461541  C 52.6779513888889 1.62660256410256  53 2.41666666666666  53 3.34615384615385  L 53 42.3846153846154  C 53 43.5464743589744  52.6089409722222 44.5805288461538  51.8268229166667 45.4867788461538  C 51.0447048611111 46.3930288461538  50.0555555555556 47.095953525641  48.859375 47.5955528846154  C 47.6631944444445 48.0951522435897  46.4727647569445 48.4669471153846  45.2880859375 48.7109375  C 44.1034071180556 48.9549278846154  42.9934895833333 49.0769230769231  41.9583333333333 49.0769230769231  C 40.9231770833333 49.0769230769231  39.8132595486111 48.9549278846154  38.6285807291667 48.7109375  C 37.4439019097222 48.4669471153846  36.2534722222222 48.0951522435897  35.0572916666667 47.5955528846154  C 33.8611111111111 47.095953525641  32.8719618055556 46.3930288461538  32.08984375 45.4867788461538  C 31.3077256944444 44.5805288461538  30.9166666666667 43.5464743589744  30.9166666666667 42.3846153846154  C 30.9166666666667 41.2227564102564  31.3077256944444 40.1887019230769  32.08984375 39.2824519230769  C 32.8719618055556 38.3762019230769  33.8611111111111 37.6732772435897  35.0572916666667 37.1736778846154  C 36.2534722222222 36.674078525641  37.4439019097222 36.3022836538462  38.6285807291667 36.0582932692308  C 39.8132595486111 35.8143028846154  40.9231770833333 35.6923076923077  41.9583333333333 35.6923076923077  C 44.3736979166667 35.6923076923077  46.58203125 36.1454326923077  48 37.0516826923077  L 48 18.3341346153846  L 22 26.5949519230769  L 22 51.3076923076923  C 22.0833333333333 52.4695512820513  21.6922743055556 53.5036057692308  20.91015625 54.4098557692308  C 20.1280381944444 55.3161057692308  19.1388888888889 56.019030448718  17.9427083333333 56.5186298076923  C 16.7465277777778 57.0182291666667  15.5560980902778 57.3900240384615  14.3714192708333 57.6340144230769  C 13.1867404513889 57.8780048076923  12.0768229166667 58  11.0416666666667 58  C 10.0065104166667 58  8.89659288194445 57.8780048076923  7.7119140625 57.6340144230769  C 6.52723524305556 57.3900240384615  5.33680555555556 57.0182291666667  4.140625 56.5186298076923  C 2.94444444444444 56.019030448718  1.95529513888889 55.3161057692308  1.17317708333333 54.4098557692308  C 0.391059027777778 53.5036057692308  0 52.4695512820513  0 51.3076923076923  C 0 50.1458333333333  0.391059027777778 49.1117788461538  1.17317708333333 48.2055288461538  C 1.95529513888889 47.2992788461538  2.94444444444444 46.5963541666667  4.140625 46.0967548076923  C 5.33680555555556 45.597155448718  6.52723524305556 45.2253605769231  7.7119140625 44.9813701923077  C 8.89659288194445 44.7373798076923  10.0065104166667 44.6153846153846  11.0416666666667 44.6153846153846  C 13.45703125 44.6153846153846  15.6653645833333 45.0685096153846  18 45.9747596153846  L 18 12.2692307692308  C 17.6666666666667 11.5488782051282  17.8851996527778 10.8924278846154  18.322265625 10.2998798076923  C 18.7593315972222 9.70733173076923  19.3229166666667 9.29487179487179  20.0130208333333 9.0625  L 48.7213541666667 0.139423076923076  C 48.9973958333333 0.0464743589743588  49.3194444444445 0  49.6875 0  C 50.6076388888889 0  51.3897569444445 0.325320512820512  52.0338541666667 0.975961538461541  Z " fill-rule="nonzero" fill="#2d6d82" stroke="none" transform="matrix(1 0 0 1 1052 1149 )" />
  </g>
</svg>