<?xml version="1.0" encoding="utf-8"?>
<svg version="1.1" xmlns:xlink="http://www.w3.org/1999/xlink" width="58px" height="58px" xmlns="http://www.w3.org/2000/svg">
  <g transform="matrix(1 0 0 1 -1531 -1153 )">
    <path d="M 9.8006600660066 53.0996699669967  L 13.8970297029703 53.0996699669967  L 17.3808580858086 49.6158415841584  L 8.38415841584158 40.6191419141914  L 4.9003300330033 44.1029702970297  L 4.9003300330033 48.1993399339934  L 9.8006600660066 48.1993399339934  L 9.8006600660066 53.0996699669967  Z M 33.6514851485149 18.223102310231  C 33.8301430143014 18.0444444444444  33.9194719471947 17.827502750275  33.9194719471947 17.5722772277228  C 33.9194719471947 17.0107810781078  33.6387238723872 16.7300330033003  33.0772277227723 16.7300330033003  C 32.82200220022 16.7300330033003  32.6050605060506 16.8193619361936  32.426402640264 16.9980198019802  L 11.6765676567657 37.7478547854786  C 11.4979097909791 37.9265126512651  11.4085808580858 38.1434543454345  11.4085808580858 38.3986798679868  C 11.4085808580858 38.9601760176018  11.6893289328933 39.2409240924092  12.2508250825083 39.2409240924092  C 12.5060506050605 39.2409240924092  12.7229922992299 39.1515951595159  12.9016501650165 38.9729372937294  L 33.6514851485149 18.223102310231  Z M 0 42.0739273927393  L 31.8521452145215 10.2217821782178  L 47.7782178217822 26.1478547854785  L 15.9260726072607 58  L 0 58  L 0 42.0739273927393  Z M 56.583498349835 10.413201320132  C 57.5278327832783 11.4085808580858  58 12.5698569856986  58 13.8970297029703  C 58 15.2497249724972  57.5278327832783 16.3982398239824  56.583498349835 17.3425742574257  L 50.2283828382838 23.6976897689769  L 34.3023102310231 7.77161716171617  L 40.6574257425743 1.45478547854785  C 41.5762376237624 0.48492849284928  42.7247524752475 0  44.1029702970297 0  C 45.4556655665567 0  46.6169416941694 0.48492849284928  47.586798679868 1.45478547854785  L 56.583498349835 10.413201320132  Z " fill-rule="nonzero" fill="#2d6d82" stroke="none" transform="matrix(1 0 0 1 1531 1153 )" />
  </g>
</svg>