<?xml version="1.0" encoding="utf-8"?>
<svg version="1.1" xmlns:xlink="http://www.w3.org/1999/xlink" width="58px" height="63px" xmlns="http://www.w3.org/2000/svg">
  <g transform="matrix(1 0 0 1 -129 -1493 )">
    <path d="M 29 60.1875  C 29.3717948717949 60.1875  29.5576923076923 60  29.5576923076923 59.625  C 29.5576923076923 59.25  29.3717948717949 59.0625  29 59.0625  C 27.6290064102564 59.0625  26.4497195512821 58.564453125  25.4621394230769 57.568359375  C 24.4745592948718 56.572265625  23.9807692307692 55.3828125  23.9807692307692 54  C 23.9807692307692 53.625  23.7948717948718 53.4375  23.4230769230769 53.4375  C 23.0512820512821 53.4375  22.8653846153846 53.625  22.8653846153846 54  C 22.8653846153846 55.7109375  23.4637419871795 57.169921875  24.6604567307692 58.376953125  C 25.857171474359 59.583984375  27.3036858974359 60.1875  29 60.1875  Z M 15.6153846153846 20.25  C 15.6153846153846 32.71875  12.5248397435897 42.46875  6.34375 49  L 51.65625 49  C 45.4751602564103 42.46875  42.3846153846154 32.71875  42.3846153846154 20.25  C 42.3846153846154 19.0546875  42.1057692307692 17.82421875  41.5480769230769 16.55859375  C 40.9903846153846 15.29296875  40.1887019230769 14.0859375  39.1430288461538 12.9375  C 38.0973557692308 11.7890625  36.6856971153846 10.845703125  34.9080528846154 10.107421875  C 33.1304086538462 9.369140625  31.1610576923077 9  29 9  C 26.8389423076923 9  24.8695913461538 9.369140625  23.0919471153846 10.107421875  C 21.3143028846154 10.845703125  19.9026442307692 11.7890625  18.8569711538462 12.9375  C 17.8112980769231 14.0859375  17.0096153846154 15.29296875  16.4519230769231 16.55859375  C 15.8942307692308 17.82421875  15.6153846153846 19.0546875  15.6153846153846 20.25  Z M 54.828125 46.40625  C 55.7808493589744 47.484375  56.838141025641 48.515625  58 49.5  C 58 50.71875  57.5584935897436 51.7734375  56.6754807692308 52.6640625  C 55.792467948718 53.5546875  54.7467948717949 54  53.5384615384615 54  L 37.9230769230769 54  C 37.9230769230769 56.484375  37.0516826923077 58.60546875  35.3088942307692 60.36328125  C 33.5661057692308 62.12109375  31.463141025641 63  29 63  C 26.536858974359 63  24.4338942307692 62.12109375  22.6911057692308 60.36328125  C 20.9483173076923 58.60546875  20.0769230769231 56.484375  20.0769230769231 54  L 4.46153846153846 54  C 3.25320512820513 54  2.20753205128205 53.5546875  1.32451923076923 52.6640625  C 0.44150641025641 51.7734375  0 50.71875  0 49.5  C 1.16185897435897 48.515625  2.21915064102564 47.484375  3.171875 46.40625  C 4.12459935897436 45.328125  5.11217948717949 43.927734375  6.13461538461538 42.205078125  C 7.15705128205128 40.482421875  8.02263621794872 38.625  8.73137019230769 36.6328125  C 9.44010416666667 34.640625  10.0210336538462 32.2265625  10.4741586538462 29.390625  C 10.9272836538462 26.5546875  11.1538461538462 23.5078125  11.1538461538462 20.25  C 11.1538461538462 16.6875  12.5132211538462 13.376953125  15.2319711538462 10.318359375  C 17.9507211538462 7.259765625  21.5176282051282 5.40234375  25.9326923076923 4.74609375  C 25.7467948717949 4.30078124999999  25.6538461538462 3.84375  25.6538461538462 3.375  C 25.6538461538462 2.4375  25.9791666666667 1.640625  26.6298076923077 0.984375  C 27.2804487179487 0.328125000000002  28.0705128205128 0  29 0  C 29.9294871794872 0  30.7195512820513 0.328125000000002  31.3701923076923 0.984375  C 32.0208333333333 1.640625  32.3461538461538 2.4375  32.3461538461538 3.375  C 32.3461538461538 3.84375  32.2532051282051 4.30078124999999  32.0673076923077 4.74609375  C 36.4823717948718 5.40234375  40.0492788461538 7.259765625  42.7680288461538 10.318359375  C 45.4867788461538 13.376953125  46.8461538461538 16.6875  46.8461538461538 20.25  C 46.8461538461538 23.5078125  47.0727163461538 26.5546875  47.5258413461538 29.390625  C 47.9789663461538 32.2265625  48.5598958333333 34.640625  49.2686298076923 36.6328125  C 49.9773637820513 38.625  50.8429487179487 40.482421875  51.8653846153846 42.205078125  C 52.8878205128205 43.927734375  53.8754006410257 45.328125  54.828125 46.40625  Z " fill-rule="nonzero" fill="#1c1a6d" stroke="none" transform="matrix(1 0 0 1 129 1493 )" />
  </g>
</svg>