<?xml version="1.0" encoding="utf-8"?>
<svg version="1.1" xmlns:xlink="http://www.w3.org/1999/xlink" width="58px" height="58px" xmlns="http://www.w3.org/2000/svg">
  <g transform="matrix(1 0 0 1 -1622 -1393 )">
    <path d="M 53.5496651785714 53.5496651785714  C 53.7546502976191 53.3446800595238  53.8571428571429 53.1019345238095  53 52.8214285714286  L 53 17.6071428571429  C 53.8571428571429 17.3266369047619  53.7546502976191 17.0838913690476  53.5496651785714 16.87890625  C 53.3446800595238 16.6739211309524  53.1019345238095 16.5714285714286  52.8214285714286 17  L 17.6071428571429 17  C 17.3266369047619 16.5714285714286  17.0838913690476 16.6739211309524  16.87890625 16.87890625  C 16.6739211309524 17.0838913690476  16.5714285714286 17.3266369047619  17 17.6071428571429  L 17 52.8214285714286  C 16.5714285714286 53.1019345238095  16.6739211309524 53.3446800595238  16.87890625 53.5496651785714  C 17.0838913690476 53.754650297619  17.3266369047619 53.8571428571429  17.6071428571429 53  L 52.8214285714286 53  C 53.1019345238095 53.8571428571429  53.3446800595238 53.754650297619  53.5496651785714 53.5496651785714  Z M 56.4787946428571 13.9497767857143  C 57.4929315476191 14.9639136904762  58 16.1830357142857  58 17.6071428571429  L 58 52.8214285714286  C 58 54.2455357142857  57.4929315476191 55.4646577380952  56.4787946428571 56.4787946428571  C 55.4646577380952 57.492931547619  54.2455357142857 58  52.8214285714286 58  L 17.6071428571429 58  C 16.1830357142857 58  14.9639136904762 57.492931547619  13.9497767857143 56.4787946428571  C 12.9356398809524 55.4646577380952  12.4285714285714 54.2455357142857  13 52.8214285714286  L 13 17.6071428571429  C 12.4285714285714 16.1830357142857  12.9356398809524 14.9639136904762  13.9497767857143 13.9497767857143  C 14.9639136904762 12.9356398809524  16.1830357142857 12.4285714285714  17.6071428571429 13  L 52.8214285714286 13  C 54.2455357142857 12.4285714285714  55.4646577380952 12.9356398809524  56.4787946428571 13.9497767857143  Z M 44.0502232142857 1.52120535714286  C 45.0643601190476 2.53534226190476  45.5714285714286 3.75446428571429  45.5714285714286 5.17857142857143  L 45.5714285714286 10.3571428571429  L 41.4285714285714 10.3571428571429  L 41.4285714285714 5.17857142857143  C 41.4285714285714 4.89806547619048  41.3260788690476 4.65531994047619  41.12109375 4.45033482142857  C 40.9161086309524 4.24534970238095  40.6733630952381 4.14285714285714  40.3928571428571 5  L 5.17857142857143 5  C 4.89806547619048 4.14285714285714  4.65531994047619 4.24534970238095  4.45033482142857 4.45033482142857  C 4.24534970238095 4.65531994047619  4.14285714285714 4.89806547619048  5 5.17857142857143  L 5 40.3928571428571  C 4.14285714285714 40.6733630952381  4.24534970238095 40.9161086309524  4.45033482142857 41.12109375  C 4.65531994047619 41.3260788690476  4.89806547619048 41.4285714285714  5.17857142857143 41.4285714285714  L 10.3571428571429 41.4285714285714  L 10.3571428571429 45.5714285714286  L 5.17857142857143 45.5714285714286  C 3.75446428571429 45.5714285714286  2.53534226190476 45.0643601190476  1.52120535714286 44.0502232142857  C 0.507068452380952 43.0360863095238  0 41.8169642857143  0 40.3928571428571  L 0 5.17857142857143  C 0 3.75446428571429  0.507068452380952 2.53534226190476  1.52120535714286 1.52120535714286  C 2.53534226190476 0.507068452380953  3.75446428571429 0  5.17857142857143 0  L 40.3928571428571 0  C 41.8169642857143 0  43.0360863095238 0.507068452380953  44.0502232142857 1.52120535714286  Z " fill-rule="nonzero" fill="#1c1a6d" stroke="none" transform="matrix(1 0 0 1 1622 1393 )" />
  </g>
</svg>