<?xml version="1.0" encoding="utf-8"?>
<svg version="1.1" xmlns:xlink="http://www.w3.org/1999/xlink" width="69px" height="45px" xmlns="http://www.w3.org/2000/svg">
  <g transform="matrix(1 0 0 1 -1168 -1564 )">
    <path d="M 54.05 36  L 14.95 36  C 13.36875 36  12.0151041666667 35.44921875  10.8890625 34.34765625  C 9.76302083333333 33.24609375  9.2 31.921875  10 30.375  L 10 5.625  C 9.2 4.078125  9.76302083333333 2.75390625  10.8890625 1.65234375  C 12.0151041666667 0.550781249999994  13.36875 0  14.95 0  L 54.05 0  C 55.63125 0  56.9848958333333 0.550781249999994  58.1109375 1.65234375  C 59.2369791666667 2.75390625  59.8 4.078125  59 5.625  L 59 30.375  C 59.8 31.921875  59.2369791666667 33.24609375  58.1109375 34.34765625  C 56.9848958333333 35.44921875  55.63125 36  54.05 36  Z M 14.14140625 4.833984375  C 13.9138020833333 5.056640625  13.8 5.3203125  14 5.625  L 14 30.375  C 13.8 30.6796875  13.9138020833333 30.943359375  14.14140625 31.166015625  C 14.3690104166667 31.388671875  14.6385416666667 31.5  14.95 31  L 54.05 31  C 54.3614583333333 31.5  54.6309895833333 31.388671875  54.85859375 31.166015625  C 55.0861979166667 30.943359375  55.2 30.6796875  55 30.375  L 55 5.625  C 55.2 5.3203125  55.0861979166667 5.056640625  54.85859375 4.833984375  C 54.6309895833333 4.61132812499999  54.3614583333333 4.5  54.05 5  L 14.95 5  C 14.6385416666667 4.5  14.3690104166667 4.61132812499999  14.14140625 4.833984375  Z M 5.75 38  L 63.25 38  L 69 38.25  L 69 41.625  C 69 42.5625  68.4369791666667 43.359375  67.3109375 44.015625  C 66.1848958333333 44.671875  64.83125 45  63.25 45  L 5.75 45  C 4.16875 45  2.81510416666667 44.671875  1.6890625 44.015625  C 0.563020833333333 43.359375  0 42.5625  0 41.625  L 0 38.25  L 5.75 38  Z M 31.625 41.625  L 37.375 41.625  C 37.7583333333333 41.625  37.95 41.4375  37.95 41.0625  C 37.95 40.6875  37.7583333333333 40.5  37.375 40.5  L 31.625 40.5  C 31.2416666666667 40.5  31.05 40.6875  31.05 41.0625  C 31.05 41.4375  31.2416666666667 41.625  31.625 41.625  Z " fill-rule="nonzero" fill="#1c1a6d" stroke="none" transform="matrix(1 0 0 1 1168 1564 )" />
  </g>
</svg>