<?xml version="1.0" encoding="utf-8"?>
<svg version="1.1" xmlns:xlink="http://www.w3.org/1999/xlink" width="63px" height="55px" xmlns="http://www.w3.org/2000/svg">
  <g transform="matrix(1 0 0 1 -361 -1443 )">
    <path d="M 60.29296875 0.183946488294314  C 60.94921875 -0.0817539947974744  61.564453125 -0.0204384986993655  62.138671875 0.367892976588629  C 62.712890625 0.776662950575994  63 1.31828316610925  63 1.99275362318841  L 63 45.1588628762542  C 63 45.5676328502415  62.88720703125 45.9355258268302  62.66162109375 46.2625418060201  C 62.43603515625 46.58955778521  62.138671875 46.8246005202527  61.76953125 46.9676700111483  L 42.08203125 54.8160535117057  C 41.58984375 55.0408769973987  41.09765625 55.0408769973987  40.60546875 54.8160535117057  L 21.65625 47.2742474916388  L 2.70703125 54.8160535117057  C 2.501953125 54.9182460052025  2.255859375 54.9693422519509  1.96875 54.9693422519509  C 1.5791015625 54.9693422519509  1.2099609375 54.8569305091044  0.861328125 54.6321070234114  C 0.287109375 54.223337049424  0 53.6817168338907  0 53.0072463768116  L 0 9.84113712374582  C 0 9.43236714975845  0.11279296875 9.06447417316982  0.33837890625 8.73745819397993  C 0.56396484375 8.41044221479004  0.861328125 8.1753994797473  1.23046875 8.03232998885173  L 20.91796875 0.183946488294314  C 21.41015625 -0.0408769973987433  21.90234375 -0.0408769973987433  22.39453125 0.183946488294314  L 41.34375 7.7257525083612  L 60.29296875 0.183946488294314  Z M 40 11.5579710144928  L 23 4.5066889632107  L 23 43.4420289855072  L 40 50.4933110367893  L 40 11.5579710144928  Z M 21 4.5066889632107  L 4 11.1594202898551  L 4 50.0947603121516  L 21 43.4420289855072  L 21 4.5066889632107  Z M 42 50.4933110367893  L 59 43.8405797101449  L 59 4.90523968784838  L 42 11.5579710144928  L 42 50.4933110367893  Z " fill-rule="nonzero" fill="#1c1a6d" stroke="none" transform="matrix(1 0 0 1 361 1443 )" />
  </g>
</svg>