<?xml version="1.0" encoding="utf-8"?>
<svg version="1.1" xmlns:xlink="http://www.w3.org/1999/xlink" width="70px" height="58px" xmlns="http://www.w3.org/2000/svg">
  <g transform="matrix(1 0 0 1 -689 -1372 )">
    <path d="M 67.9411764705882 37  L 55.5882352941176 14.5  L 43.2352941176471 37  L 67.9411764705882 37  Z M 26.7647058823529 37  L 14.4117647058824 14.5  L 2.05882352941176 37  L 26.7647058823529 37  Z M 56.6176470588235 9  L 40.8226102941176 9  C 40.5223651960784 9.14880952380952  40.0344669117647 9.92020089285714  39.3589154411765 10.5998883928571  C 38.6833639705882 11.2795758928571  37.9166666666667 11.7704613095238  37 12.0725446428571  L 37 53  L 56.6176470588235 53  C 56.9178921568628 53.8571428571429  57.1645220588235 53.9542410714286  57.3575367647059 54.1484375  C 57.5505514705882 54.3426339285714  57.6470588235294 54.5907738095238  57.6470588235294 54.8928571428571  L 57.6470588235294 56.9642857142857  C 57.6470588235294 57.266369047619  57.5505514705882 57.5145089285714  57.3575367647059 57.7087053571429  C 57.1645220588235 57.9029017857143  56.9178921568628 58  56.6176470588235 58  L 13.3823529411765 58  C 13.0821078431373 58  12.8354779411765 57.9029017857143  12.6424632352941 57.7087053571429  C 12.4494485294118 57.5145089285714  12.3529411764706 57.266369047619  12.3529411764706 56.9642857142857  L 12.3529411764706 54.8928571428571  C 12.3529411764706 54.5907738095238  12.4494485294118 54.3426339285714  12.6424632352941 54.1484375  C 12.8354779411765 53.9542410714286  13.0821078431373 53.8571428571429  13.3823529411765 53  L 33 53  L 33 12.0725446428571  C 32.0833333333333 11.7704613095238  31.3166360294118 11.2795758928571  30.6410845588235 10.5998883928571  C 29.9655330882353 9.92020089285714  29.4776348039216 9.14880952380952  29.1773897058824 9  L 13.3823529411765 9  C 13.0821078431373 8.28571428571429  12.8354779411765 8.18861607142857  12.6424632352941 7.99441964285714  C 12.4494485294118 7.80022321428571  12.3529411764706 7.55208333333333  12.3529411764706 7.25  L 12.3529411764706 5.17857142857143  C 12.3529411764706 4.87648809523809  12.4494485294118 4.62834821428571  12.6424632352941 4.43415178571429  C 12.8354779411765 4.23995535714286  13.0821078431373 4.14285714285714  13.3823529411765 5  L 29.1773897058824 5  C 29.6277573529412 2.91294642857143  30.3783700980392 1.91499255952381  31.4292279411765 1.14899553571429  C 32.4800857843137 0.382998511904765  33.6703431372549 0  35 0  C 36.3296568627451 0  37.5199142156863 0.382998511904765  38.5707720588235 1.14899553571429  C 39.6216299019608 1.91499255952381  40.3722426470588 2.91294642857143  40.8226102941176 5  L 56.6176470588235 5  C 56.9178921568628 4.14285714285714  57.1645220588235 4.23995535714286  57.3575367647059 4.43415178571429  C 57.5505514705882 4.62834821428571  57.6470588235294 4.87648809523809  57.6470588235294 5.17857142857143  L 57.6470588235294 7.25  C 57.6470588235294 7.55208333333333  57.5505514705882 7.80022321428571  57.3575367647059 7.99441964285714  C 57.1645220588235 8.18861607142857  56.9178921568628 8.28571428571429  56.6176470588235 9  Z M 33.1824448529412 8.04296875  C 33.6864276960784 8.55003720238095  34.2922794117647 8.80357142857143  35 8.80357142857143  C 35.7077205882353 8.80357142857143  36.3135723039216 8.55003720238095  36.8175551470588 8.04296875  C 37.3215379901961 7.53590029761905  37.5735294117647 6.92633928571429  37.5735294117647 6.21428571428571  C 37.5735294117647 5.50223214285714  37.3215379901961 4.89267113095238  36.8175551470588 4.38560267857143  C 36.3135723039216 3.87853422619048  35.7077205882353 3.625  35 3.625  C 34.2922794117647 3.625  33.6864276960784 3.87853422619048  33.1824448529412 4.38560267857143  C 32.6784620098039 4.89267113095238  32.4264705882353 5.50223214285714  32.4264705882353 6.21428571428571  C 32.4264705882353 6.92633928571429  32.6784620098039 7.53590029761905  33.1824448529412 8.04296875  Z M 68.8740808823529 34.6640625  C 69.624693627451 36.1744791666667  70 37.0483630952381  70 37.2857142857143  C 70 38.8608630952381  69.5013786764706 40.274181547619  68.5041360294118 41.5256696428571  C 67.5068933823529 42.7771577380952  66.2469362745098 43.7589285714286  64.7242647058824 44.4709821428571  C 63.2015931372549 45.1830357142857  61.6521139705882 45.7170758928571  60.0758272058824 46.0731026785714  C 58.4995404411765 46.4291294642857  57.0036764705882 46.6071428571429  55.5882352941176 46.6071428571429  C 54.1727941176471 46.6071428571429  52.6769301470588 46.4291294642857  51.1006433823529 46.0731026785714  C 49.5243566176471 45.7170758928571  47.9748774509804 45.1830357142857  46.4522058823529 44.4709821428571  C 44.9295343137255 43.7589285714286  43.6695772058824 42.7771577380952  42.6723345588235 41.5256696428571  C 41.6750919117647 40.274181547619  41.1764705882353 38.8608630952381  41.1764705882353 37.2857142857143  C 41.1764705882353 37.0483630952381  41.5517769607843 36.1744791666667  42.3023897058824 34.6640625  C 43.0530024509804 33.1536458333333  44.0395220588235 31.2710193452381  45.2619485294118 29.0161830357143  C 46.484375 26.7613467261905  47.6317401960784 24.6521577380952  48.7040441176471 22.6886160714286  C 49.7763480392157 20.7250744047619  50.8700980392157 18.7399553571429  51.9852941176471 16.7332589285714  C 53.1004901960784 14.7265625  53.7009803921569 13.6476934523809  53.7867647058824 13.4966517857143  C 54.1727941176471 12.7845982142857  54.7732843137255 12.4285714285714  55.5882352941176 12.4285714285714  C 56.4031862745098 12.4285714285714  57.0036764705882 12.7845982142857  57.3897058823529 13.4966517857143  C 57.4754901960784 13.6476934523809  58.0759803921569 14.7265625  59.1911764705882 16.7332589285714  C 60.3063725490196 18.7399553571429  61.4001225490196 20.7250744047619  62.4724264705882 22.6886160714286  C 63.5447303921569 24.6521577380952  64.6920955882353 26.7613467261905  65.9145220588235 29.0161830357143  C 67.1369485294118 31.2710193452381  68.1234681372549 33.1536458333333  68.8740808823529 34.6640625  Z M 27.6976102941176 34.6640625  C 28.4482230392157 36.1744791666667  28.8235294117647 37.0483630952381  28.8235294117647 37.2857142857143  C 28.8235294117647 38.8608630952381  28.3249080882353 40.274181547619  27.3276654411765 41.5256696428571  C 26.3304227941176 42.7771577380952  25.0704656862745 43.7589285714286  23.5477941176471 44.4709821428571  C 22.0251225490196 45.1830357142857  20.4756433823529 45.7170758928571  18.8993566176471 46.0731026785714  C 17.3230698529412 46.4291294642857  15.8272058823529 46.6071428571429  14.4117647058824 46.6071428571429  C 12.9963235294118 46.6071428571429  11.5004595588235 46.4291294642857  9.92417279411765 46.0731026785714  C 8.34788602941176 45.7170758928571  6.7984068627451 45.1830357142857  5.27573529411765 44.4709821428571  C 3.7530637254902 43.7589285714286  2.49310661764706 42.7771577380952  1.49586397058824 41.5256696428571  C 0.498621323529412 40.274181547619  0 38.8608630952381  0 37.2857142857143  C 0 37.0483630952381  0.37530637254902 36.1744791666667  1.12591911764706 34.6640625  C 1.8765318627451 33.1536458333333  2.86305147058824 31.2710193452381  4.08547794117647 29.0161830357143  C 5.30790441176471 26.7613467261905  6.45526960784314 24.6521577380952  7.52757352941177 22.6886160714286  C 8.59987745098039 20.7250744047619  9.69362745098039 18.7399553571429  10.8088235294118 16.7332589285714  C 11.9240196078431 14.7265625  12.5245098039216 13.6476934523809  12.6102941176471 13.4966517857143  C 12.9963235294118 12.7845982142857  13.5968137254902 12.4285714285714  14.4117647058824 12.4285714285714  C 15.2267156862745 12.4285714285714  15.8272058823529 12.7845982142857  16.2132352941176 13.4966517857143  C 16.2990196078431 13.6476934523809  16.8995098039216 14.7265625  18.0147058823529 16.7332589285714  C 19.1299019607843 18.7399553571429  20.2236519607843 20.7250744047619  21.2959558823529 22.6886160714286  C 22.3682598039216 24.6521577380952  23.515625 26.7613467261905  24.7380514705882 29.0161830357143  C 25.9604779411765 31.2710193452381  26.9469975490196 33.1536458333333  27.6976102941176 34.6640625  Z " fill-rule="nonzero" fill="#1c1a6d" stroke="none" transform="matrix(1 0 0 1 689 1372 )" />
  </g>
</svg>