<?xml version="1.0" encoding="utf-8"?>
<svg version="1.1" xmlns:xlink="http://www.w3.org/1999/xlink" width="60px" height="46px" xmlns="http://www.w3.org/2000/svg">
  <g transform="matrix(1 0 0 1 -910 -1695 )">
    <path d="M 19.0819672131148 36.9272197962154  C 19.0819672131148 37.2173702086366  18.9726775956284 37.4740417273168  18.7540983606557 37.6972343522562  L 17.1147540983607 39.3711790393013  C 16.896174863388 39.5943716642407  16.6448087431694 39.7059679767103  16.3606557377049 39.7059679767103  C 16.0765027322404 39.7059679767103  15.8251366120219 39.5943716642407  15.6065573770492 39.3711790393013  L 0.327868852459016 23.7700145560408  C 0.109289617486339 23.5468219311014  0 23.2901504124212  0 23  C 0 22.7098495875788  0.109289617486339 22.4531780688986  0.327868852459016 22.2299854439592  L 15.6065573770492 6.62882096069869  C 15.8251366120219 6.40562833575934  16.0765027322404 6.29403202328967  16.3606557377049 6.29403202328967  C 16.6448087431694 6.29403202328967  16.896174863388 6.40562833575934  17.1147540983607 6.62882096069869  L 18.7540983606557 8.30276564774382  C 18.9726775956284 8.52595827268316  19.0819672131148 8.78262979136341  19.0819672131148 9.07278020378457  C 19.0819672131148 9.36293061620572  18.9726775956284 9.61960213488598  18.7540983606557 9.84279475982533  L 5.86885245901639 23  L 18.7540983606557 36.1572052401747  C 18.9726775956284 36.380397865114  19.0819672131148 36.6370693837943  19.0819672131148 36.9272197962154  Z M 38.0491803278689 1.15502183406113  C 38.1912568306011 1.41169335274138  38.2185792349727 1.68510431829209  38.1311475409836 1.97525473071324  L 25.9016393442623 45.1965065502183  C 25.8142076502732 45.4866569626395  25.6448087431694 45.7042697719554  25.3934426229508 45.8493449781659  C 25.1420765027322 45.9944201843765  24.8852459016393 46.0223192624939  24.6229508196721 45.9330422125182  L 22.5901639344262 45.3639010189229  C 22.3060109289618 45.2746239689471  22.0928961748634 45.1016496846191  21.9508196721311 44.8449781659389  C 21.8087431693989 44.5883066472586  21.7814207650273 44.3148956817079  21.8688524590164 44.0247452692868  L 34.0983606557377 0.803493449781661  C 34.1857923497268 0.5133430373605  34.3551912568306 0.295730228044636  34.6065573770492 0.150655021834063  C 34.8579234972678 0.00557981562347964  35.1147540983607 -0.022319262493939  35.3770491803279 0.0669577874818068  L 37.4098360655738 0.636098981077149  C 37.6939890710383 0.72537603105288  37.9071038251366 0.898350315380882  38.0491803278689 1.15502183406113  Z M 60 23  C 60 23.2901504124212  59.8907103825137 23.5468219311014  59.672131147541 23.7700145560408  L 44.3934426229508 39.3711790393013  C 44.1748633879781 39.5943716642407  43.9234972677596 39.7059679767103  43.6393442622951 39.7059679767103  C 43.3551912568306 39.7059679767103  43.103825136612 39.5943716642407  42.8852459016393 39.3711790393013  L 41.2459016393443 37.6972343522562  C 41.0273224043716 37.4740417273168  40.9180327868852 37.2173702086366  40.9180327868852 36.9272197962154  C 40.9180327868852 36.6370693837943  41.0273224043716 36.380397865114  41.2459016393443 36.1572052401747  L 54.1311475409836 23  L 41.2459016393443 9.84279475982533  C 41.0273224043716 9.61960213488598  40.9180327868852 9.36293061620572  40.9180327868852 9.07278020378457  C 40.9180327868852 8.78262979136341  41.0273224043716 8.52595827268316  41.2459016393443 8.30276564774382  L 42.8852459016393 6.62882096069869  C 43.103825136612 6.40562833575934  43.3551912568306 6.29403202328967  43.6393442622951 6.29403202328967  C 43.9234972677596 6.29403202328967  44.1748633879781 6.40562833575934  44.3934426229508 6.62882096069869  L 59.672131147541 22.2299854439592  C 59.8907103825137 22.4531780688986  60 22.7098495875788  60 23  Z " fill-rule="nonzero" fill="#1c1a6d" stroke="none" transform="matrix(1 0 0 1 910 1695 )" />
  </g>
</svg>