<?xml version="1.0" encoding="utf-8"?>
<svg version="1.1" xmlns:xlink="http://www.w3.org/1999/xlink" width="58px" height="50px" xmlns="http://www.w3.org/2000/svg">
  <g transform="matrix(1 0 0 1 -1793 -1645 )">
    <path d="M 41.34765625 6.42903645833333  C 37.5176711309524 4.92078993055555  33.4017857142857 4.16666666666667  29 4.16666666666667  C 24.5982142857143 4.16666666666667  20.4823288690476 4.92078993055555  16.65234375 6.42903645833333  C 12.8223586309524 7.93728298611111  9.77994791666667 9.97178819444444  7.52511160714286 12.5325520833333  C 5.27027529761905 15.0933159722222  4.14285714285714 17.8602430555556  4.14285714285714 20.8333333333333  C 4.14285714285714 23.2638888888889  4.91424851190476 25.5805121527778  6.45703125 27.783203125  C 7.99981398809524 29.9858940972222  10.1737351190476 31.8901909722222  12.9787946428571 33.49609375  L 15.7946428571429 35.1236979166667  L 14.9207589285714 38.2486979166667  C 14.4029017857143 40.2235243055556  13.647693452381 42.08984375  12.6551339285714 43.84765625  C 15.9348958333333 42.48046875  18.9017857142857 40.625  21.5558035714286 38.28125  L 22.9475446428571 37.0442708333333  L 24.7924107142857 37.2395833333333  C 26.28125 37.4131944444444  27.6837797619048 37.5  29 37.5  C 33.4017857142857 37.5  37.5176711309524 36.7458767361111  41.34765625 35.2376302083333  C 45.1776413690476 33.7293836805556  48.2200520833333 31.6948784722222  50.4748883928571 29.1341145833333  C 52.729724702381 26.5733506944444  53.8571428571429 23.8064236111111  53.8571428571429 20.8333333333333  C 53.8571428571429 17.8602430555556  52.729724702381 15.0933159722222  50.4748883928571 12.5325520833333  C 48.2200520833333 9.97178819444444  45.1776413690476 7.93728298611111  41.34765625 6.42903645833333  Z M 54.1160714285714 10.3678385416667  C 56.7053571428571 13.5687934027778  58 17.0572916666667  58 20.8333333333333  C 58 24.609375  56.7053571428571 28.0978732638889  54.1160714285714 31.298828125  C 51.5267857142857 34.4997829861111  48.0096726190476 37.0279947916667  43.5647321428571 38.8834635416667  C 39.1197916666667 40.7389322916667  34.264880952381 41.6666666666667  29 41.6666666666667  C 27.4895833333333 41.6666666666667  25.9252232142857 41.5798611111111  24.3069196428571 41.40625  C 20.0345982142857 45.2039930555556  15.0718005952381 47.8298611111111  9.41852678571428 49.2838541666667  C 8.36123511904762 49.5876736111111  7.13132440476191 49.8263888888889  5.72879464285714 50  L 5.56696428571429 50  C 5.24330357142857 50  4.95200892857143 49.8860677083333  4.69308035714286 49.658203125  C 4.43415178571429 49.4303385416667  4.26153273809524 49.1319444444444  4.17522321428571 48.7630208333333  L 4.17522321428571 48.73046875  C 4.11049107142857 48.6436631944445  4.10509672619048 48.5134548611111  4.15904017857143 48.33984375  C 4.21298363095238 48.1662326388889  4.23456101190476 48.0577256944444  4.22377232142857 48.0143229166667  C 4.21298363095238 47.9709201388889  4.26153273809524 47.8678385416667  4.36941964285714 47.705078125  L 4.56361607142857 47.412109375  C 4.56361607142857 47.412109375  4.63913690476191 47.3198784722222  4.79017857142857 47.1354166666667  C 4.94122023809524 46.9509548611111  5.02752976190476 46.8532986111111  5.04910714285714 46.8424479166667  C 5.20014880952381 46.6688368055556  5.53459821428571 46.2944878472222  6.05245535714286 45.7194010416667  C 6.5703125 45.1443142361111  6.94252232142857 44.7319878472222  7.16908482142857 44.482421875  C 7.39564732142857 44.2328559027778  7.73009672619048 43.8042534722222  8.17243303571428 43.1966145833333  C 8.61476934523809 42.5889756944444  8.96540178571428 42.0355902777778  9.22433035714286 41.5364583333333  C 9.48325892857143 41.0373263888889  9.77455357142857 40.3971354166667  10.0982142857143 39.6158854166667  C 10.421875 38.8346354166667  10.702380952381 38.0099826388889  10.9397321428571 37.1419270833333  C 7.55208333333333 35.2105034722222  4.88188244047619 32.8233506944444  2.92912946428571 29.98046875  C 0.976376488095238 27.1375868055555  0 24.0885416666667  0 20.8333333333333  C 0 17.0572916666667  1.29464285714286 13.5687934027778  3.88392857142857 10.3678385416667  C 6.47321428571429 7.16688368055555  9.99032738095238 4.638671875  14.4352678571429 2.783203125  C 18.8802083333333 0.927734375  23.7351190476191 0  29 0  C 34.264880952381 0  39.1197916666667 0.927734375  43.5647321428571 2.783203125  C 48.0096726190476 4.638671875  51.5267857142857 7.16688368055555  54.1160714285714 10.3678385416667  Z " fill-rule="nonzero" fill="#1c1a6d" stroke="none" transform="matrix(1 0 0 1 1793 1645 )" />
  </g>
</svg>