<?xml version="1.0" encoding="utf-8"?>
<svg version="1.1" xmlns:xlink="http://www.w3.org/1999/xlink" width="96px" height="89px" xmlns="http://www.w3.org/2000/svg">
  <g transform="matrix(1 0 0 1 -1383 -2199 )">
    <path d="M 14.22 73.0947265625  C 14.98 72.3800998263889  15.36 71.5013020833333  15.36 70.4583333333333  C 15.36 69.4539930555556  14.98 68.5848524305556  14.22 67.8509114583333  C 13.46 67.1169704861111  12.56 66.75  11.52 66.75  C 10.44 66.75  9.53 67.1169704861111  8.79 67.8509114583333  C 8.05 68.5848524305556  7.68 69.4539930555556  7.68 70.4583333333333  C 7.68 71.5013020833333  8.05 72.3800998263889  8.79 73.0947265625  C 9.53 73.8093532986111  10.44 74.1666666666667  11.52 74.1666666666667  C 12.56 74.1666666666667  13.46 73.8093532986111  14.22 73.0947265625  Z M 23.82 38.1842447916667  C 24.58 38.9181857638889  24.96 39.7873263888889  25 40.7916666666667  L 25 77.875  C 24.96 78.8793402777778  24.58 79.7484809027778  23.82 80.482421875  C 23.06 81.2163628472222  22.16 81.5833333333333  21.12 81  L 3.84 81  C 2.8 81.5833333333333  1.9 81.2163628472222  1.14 80.482421875  C 0.38 79.7484809027778  0 78.8793402777778  0 77.875  L 0 40.7916666666667  C 0 39.7873263888889  0.38 38.9181857638889  1.14 38.1842447916667  C 1.9 37.4503038194445  2.8 37.0833333333333  3.84 37  L 21.12 37  C 22.16 37.0833333333333  23.06 37.4503038194445  23.82 38.1842447916667  Z M 92.58 32.9694010416667  C 94.86 35.1712239583333  96 37.7786458333333  96 40.7916666666667  C 96 44.1137152777778  94.9 46.9915364583333  92.7 49.4251302083333  C 93.3 51.1247829861111  93.6 52.5926649305556  93.6 53.8287760416667  C 93.72 56.7645399305556  92.86 59.4105902777778  91.02 61.7669270833333  C 91.7 63.9301215277778  91.7 66.1898871527778  91.02 68.5462239583333  C 90.42 70.748046875  89.34 72.5635850694444  87.78 73.9928385416667  C 88.14 78.3192274305556  87.16 81.8151041666667  84.84 84.48046875  C 82.28 87.4162326388889  78.34 88.9227430555556  73.02 89  L 70.86 89  L 66.3 89  L 65.28 89  C 62.64 89  59.76 88.7006293402778  56.64 88.1018880208333  C 53.52 87.5031467013889  51.09 86.9430338541667  49.35 86.4215494791667  C 47.61 85.9000651041667  45.2 85.1371527777778  42.12 84.1328125  C 37.2 82.4717881944444  34.04 81.6219618055556  32.64 81.5833333333333  C 31.6 81.5447048611111  30.7 81.1680772569444  29.94 80.4534505208333  C 29.18 79.7388237847222  28.8 78.8793402777778  29 77.875  L 29 40.7337239583333  C 28.8 39.7680121527778  29.16 38.9278428819444  29.88 38.2132161458333  C 30.6 37.4985894097222  31.46 37.1026475694444  32.46 37.025390625  C 33.42 36.9481336805555  34.94 35.80859375  37.02 33.6067708333333  C 39.1 31.4049479166667  41.12 29.0679253472222  43.08 26.595703125  C 45.8 23.2350260416667  47.82 20.9173177083333  49.14 19.642578125  C 49.86 18.947265625  50.48 18.0201822916667  51 16.861328125  C 51.52 15.7024739583333  51.87 14.7657335069444  52.05 14.0511067708333  C 52.23 13.3364800347222  52.5 12.16796875  52.86 10.5455729166667  C 53.14 9.0390625  53.39 7.86089409722221  53.61 7.01106770833333  C 53.83 6.16124131944444  54.22 5.15690104166667  54.78 3.998046875  C 55.34 2.83919270833333  56.02 1.87348090277778  56.82 1.10091145833333  C 57.58 0.366970486111107  58.48 0  59.52 0  C 61.36 0  63.01 0.20279947916667  64.47 0.6083984375  C 65.93 1.01399739583333  67.13 1.51616753472221  68.07 2.11490885416667  C 69.01 2.71365017361111  69.81 3.49587673611111  70.47 4.46158854166667  C 71.13 5.42730034722221  71.61 6.29644097222221  71.91 7.06901041666667  C 72.21 7.84157986111111  72.45 8.80729166666667  72.63 9.96614583333333  C 72.81 11.125  72.91 11.994140625  72.93 12.5735677083333  C 72.95 13.1529947916667  72.96 13.90625  72.96 14.8333333333333  C 72.96 16.3012152777778  72.77 17.7690972222222  72.39 19.2369791666667  C 72.01 20.7048611111111  71.63 21.8637152777778  71.25 22.7135416666667  C 70.87 23.5633680555555  70.32 24.6449652777778  69.6 25.9583333333333  C 69.48 26.1901041666667  69.28 26.5377604166667  69 27.0013020833333  C 68.72 27.46484375  68.5 27.8897569444444  68.34 28.2760416666667  C 68.18 28.6623263888889  68.02 29.1258680555555  67.86 30  L 84.48 30  C 87.6 29.6666666666667  90.3 30.767578125  92.58 32.9694010416667  Z " fill-rule="nonzero" fill="#f95858" stroke="none" transform="matrix(1 0 0 1 1383 2199 )" />
  </g>
</svg>