<?xml version="1.0" encoding="utf-8"?>
<svg version="1.1" xmlns:xlink="http://www.w3.org/1999/xlink" width="398px" height="89px" xmlns="http://www.w3.org/2000/svg">
  <defs>
    <mask fill="white" id="clip7">
      <path d="M 0 73  L 0 4  C 0 1.75999999999999  1.75999999999999 0  4 0  L 382 0  C 384.24 0  386 1.75999999999999  386 4  L 386 73  C 386 75.24  384.24 77  382 77  L 234.666666666668 77  L 4 77  C 1.75999999999999 77  0 75.24  0 73  Z " fill-rule="evenodd" />
    </mask>
    <filter x="515px" y="1008px" width="398px" height="89px" filterUnits="userSpaceOnUse" id="filter8">
      <feOffset dx="0" dy="2" in="SourceAlpha" result="shadowOffsetInner" />
      <feGaussianBlur stdDeviation="3" in="shadowOffsetInner" result="shadowGaussian" />
      <feComposite in2="shadowGaussian" operator="atop" in="SourceAlpha" result="shadowComposite" />
      <feColorMatrix type="matrix" values="0 0 0 0 0.733333333333333  0 0 0 0 0.733333333333333  0 0 0 0 0.733333333333333  0 0 0 0.956862745098039 0  " in="shadowComposite" />
    </filter>
    <g id="widget9">
      <path d="M 0 73  L 0 4  C 0 1.75999999999999  1.75999999999999 0  4 0  L 382 0  C 384.24 0  386 1.75999999999999  386 4  L 386 73  C 386 75.24  384.24 77  382 77  L 234.666666666668 77  L 4 77  C 1.75999999999999 77  0 75.24  0 73  Z " fill-rule="nonzero" fill="#ffffff" stroke="none" fill-opacity="0" transform="matrix(1 0 0 1 521 1012 )" />
      <path d="M 0 73  L 0 4  C 0 1.75999999999999  1.75999999999999 0  4 0  L 382 0  C 384.24 0  386 1.75999999999999  386 4  L 386 73  C 386 75.24  384.24 77  382 77  L 234.666666666668 77  L 4 77  C 1.75999999999999 77  0 75.24  0 73  Z " stroke-width="2" stroke="#bbbbbb" fill="none" transform="matrix(1 0 0 1 521 1012 )" mask="url(#clip7)" />
    </g>
  </defs>
  <g transform="matrix(1 0 0 1 -515 -1008 )">
    <use xlink:href="#widget9" filter="url(#filter8)" />
    <use xlink:href="#widget9" />
  </g>
</svg>