<?xml version="1.0" encoding="utf-8"?>
<svg version="1.1" xmlns:xlink="http://www.w3.org/1999/xlink" width="35px" height="46px" xmlns="http://www.w3.org/2000/svg">
  <g transform="matrix(1 0 0 1 -804 -492 )">
    <path d="M 1.59090909090909 0  L 33.4090909090909 0  C 33.8399621212121 0  34.2128314393939 0.162574404761909  34.5276988636364 0.487723214285716  C 34.8425662878788 0.812872023809518  35 1.19791666666666  35 1.64285714285714  L 35 44.3571428571429  C 35 44.8020833333333  34.8425662878788 45.1871279761905  34.5276988636364 45.5122767857143  C 34.2128314393939 45.8374255952381  33.8399621212121 46  33.4090909090909 46  L 1.59090909090909 46  C 1.16003787878788 46  0.787168560606061 45.8374255952381  0.472301136363636 45.5122767857143  C 0.157433712121212 45.1871279761905  0 44.8020833333333  0 44.3571428571429  L 0 1.64285714285714  C 0 1.19791666666666  0.157433712121212 0.812872023809518  0.472301136363636 0.487723214285716  C 0.787168560606061 0.162574404761909  1.16003787878788 0  1.59090909090909 0  Z M 12.9509943181818 6.80245535714286  C 12.8018465909091 6.95647321428572  12.7272727272727 7.15327380952381  12.7272727272727 7.39285714285714  L 12.7272727272727 9.03571428571428  C 12.7272727272727 9.27529761904762  12.8018465909091 9.47209821428572  12.9509943181818 9.62611607142857  C 13.1001420454545 9.78013392857143  13.2907196969697 9.85714285714286  13.5227272727273 9.85714285714286  L 15.1136363636364 9.85714285714286  C 15.3456439393939 9.85714285714286  15.5362215909091 9.78013392857143  15.6853693181818 9.62611607142857  C 15.8345170454545 9.47209821428572  15.9090909090909 9.27529761904762  15.9090909090909 9.03571428571428  L 15.9090909090909 7.39285714285714  C 15.9090909090909 7.15327380952381  15.8345170454545 6.95647321428572  15.6853693181818 6.80245535714286  C 15.5362215909091 6.6484375  15.3456439393939 6.57142857142857  15.1136363636364 6.57142857142857  L 13.5227272727273 6.57142857142857  C 13.2907196969697 6.57142857142857  13.1001420454545 6.6484375  12.9509943181818 6.80245535714286  Z M 12.9509943181818 13.3738839285714  C 12.8018465909091 13.5279017857143  12.7272727272727 13.7247023809524  12.7272727272727 13.9642857142857  L 12.7272727272727 15.6071428571429  C 12.7272727272727 15.8467261904762  12.8018465909091 16.0435267857143  12.9509943181818 16.1975446428571  C 13.1001420454545 16.3515625  13.2907196969697 16.4285714285714  13.5227272727273 16.4285714285714  L 15.1136363636364 16.4285714285714  C 15.3456439393939 16.4285714285714  15.5362215909091 16.3515625  15.6853693181818 16.1975446428571  C 15.8345170454545 16.0435267857143  15.9090909090909 15.8467261904762  15.9090909090909 15.6071428571429  L 15.9090909090909 13.9642857142857  C 15.9090909090909 13.7247023809524  15.8345170454545 13.5279017857143  15.6853693181818 13.3738839285714  C 15.5362215909091 13.2198660714286  15.3456439393939 13.1428571428571  15.1136363636364 13.1428571428571  L 13.5227272727273 13.1428571428571  C 13.2907196969697 13.1428571428571  13.1001420454545 13.2198660714286  12.9509943181818 13.3738839285714  Z M 12.9509943181818 19.9453125  C 12.8018465909091 20.0993303571429  12.7272727272727 20.2961309523809  12.7272727272727 20.5357142857143  L 12.7272727272727 22.1785714285714  C 12.7272727272727 22.4181547619048  12.8018465909091 22.6149553571429  12.9509943181818 22.7689732142857  C 13.1001420454545 22.9229910714286  13.2907196969697 23  13.5227272727273 23  L 15.1136363636364 23  C 15.3456439393939 23  15.5362215909091 22.9229910714286  15.6853693181818 22.7689732142857  C 15.8345170454545 22.6149553571429  15.9090909090909 22.4181547619048  15.9090909090909 22.1785714285714  L 15.9090909090909 20.5357142857143  C 15.9090909090909 20.2961309523809  15.8345170454545 20.0993303571429  15.6853693181818 19.9453125  C 15.5362215909091 19.7912946428571  15.3456439393939 19.7142857142857  15.1136363636364 19.7142857142857  L 13.5227272727273 19.7142857142857  C 13.2907196969697 19.7142857142857  13.1001420454545 19.7912946428571  12.9509943181818 19.9453125  Z M 12.9509943181818 26.5167410714286  C 12.8018465909091 26.6707589285714  12.7272727272727 26.8675595238095  12.7272727272727 27.1071428571429  L 12.7272727272727 28.75  C 12.7272727272727 28.9895833333333  12.8018465909091 29.1863839285714  12.9509943181818 29.3404017857143  C 13.1001420454545 29.4944196428571  13.2907196969697 29.5714285714286  13.5227272727273 29.5714285714286  L 15.1136363636364 29.5714285714286  C 15.3456439393939 29.5714285714286  15.5362215909091 29.4944196428571  15.6853693181818 29.3404017857143  C 15.8345170454545 29.1863839285714  15.9090909090909 28.9895833333333  15.9090909090909 28.75  L 15.9090909090909 27.1071428571429  C 15.9090909090909 26.8675595238095  15.8345170454545 26.6707589285714  15.6853693181818 26.5167410714286  C 15.5362215909091 26.3627232142857  15.3456439393939 26.2857142857143  15.1136363636364 26.2857142857143  L 13.5227272727273 26.2857142857143  C 13.2907196969697 26.2857142857143  13.1001420454545 26.3627232142857  12.9509943181818 26.5167410714286  Z M 9.32173295454546 35.9118303571429  C 9.47088068181818 35.7578125  9.54545454545455 35.5610119047619  9.54545454545455 35.3214285714286  L 9.54545454545455 33.6785714285714  C 9.54545454545455 33.4389880952381  9.47088068181818 33.2421875  9.32173295454546 33.0881696428571  C 9.17258522727273 32.9341517857143  8.98200757575758 32.8571428571429  8.75 32.8571428571429  L 7.15909090909091 32.8571428571429  C 6.92708333333333 32.8571428571429  6.73650568181818 32.9341517857143  6.58735795454545 33.0881696428571  C 6.43821022727273 33.2421875  6.36363636363636 33.4389880952381  6.36363636363636 33.6785714285714  L 6.36363636363636 35.3214285714286  C 6.36363636363636 35.5610119047619  6.43821022727273 35.7578125  6.58735795454545 35.9118303571429  C 6.73650568181818 36.0658482142857  6.92708333333333 36.1428571428571  7.15909090909091 36.1428571428571  L 8.75 36.1428571428571  C 8.98200757575758 36.1428571428571  9.17258522727273 36.0658482142857  9.32173295454546 35.9118303571429  Z M 9.32173295454546 29.3404017857143  C 9.47088068181818 29.1863839285714  9.54545454545455 28.9895833333333  9.54545454545455 28.75  L 9.54545454545455 27.1071428571429  C 9.54545454545455 26.8675595238095  9.47088068181818 26.6707589285714  9.32173295454546 26.5167410714286  C 9.17258522727273 26.3627232142857  8.98200757575758 26.2857142857143  8.75 26.2857142857143  L 7.15909090909091 26.2857142857143  C 6.92708333333333 26.2857142857143  6.73650568181818 26.3627232142857  6.58735795454545 26.5167410714286  C 6.43821022727273 26.6707589285714  6.36363636363636 26.8675595238095  6.36363636363636 27.1071428571429  L 6.36363636363636 28.75  C 6.36363636363636 28.9895833333333  6.43821022727273 29.1863839285714  6.58735795454545 29.3404017857143  C 6.73650568181818 29.4944196428571  6.92708333333333 29.5714285714286  7.15909090909091 29.5714285714286  L 8.75 29.5714285714286  C 8.98200757575758 29.5714285714286  9.17258522727273 29.4944196428571  9.32173295454546 29.3404017857143  Z M 9.32173295454546 22.7689732142857  C 9.47088068181818 22.6149553571429  9.54545454545455 22.4181547619048  9.54545454545455 22.1785714285714  L 9.54545454545455 20.5357142857143  C 9.54545454545455 20.2961309523809  9.47088068181818 20.0993303571429  9.32173295454546 19.9453125  C 9.17258522727273 19.7912946428571  8.98200757575758 19.7142857142857  8.75 19.7142857142857  L 7.15909090909091 19.7142857142857  C 6.92708333333333 19.7142857142857  6.73650568181818 19.7912946428571  6.58735795454545 19.9453125  C 6.43821022727273 20.0993303571429  6.36363636363636 20.2961309523809  6.36363636363636 20.5357142857143  L 6.36363636363636 22.1785714285714  C 6.36363636363636 22.4181547619048  6.43821022727273 22.6149553571429  6.58735795454545 22.7689732142857  C 6.73650568181818 22.9229910714286  6.92708333333333 23  7.15909090909091 23  L 8.75 23  C 8.98200757575758 23  9.17258522727273 22.9229910714286  9.32173295454546 22.7689732142857  Z M 9.32173295454546 16.1975446428571  C 9.47088068181818 16.0435267857143  9.54545454545455 15.8467261904762  9.54545454545455 15.6071428571429  L 9.54545454545455 13.9642857142857  C 9.54545454545455 13.7247023809524  9.47088068181818 13.5279017857143  9.32173295454546 13.3738839285714  C 9.17258522727273 13.2198660714286  8.98200757575758 13.1428571428571  8.75 13.1428571428571  L 7.15909090909091 13.1428571428571  C 6.92708333333333 13.1428571428571  6.73650568181818 13.2198660714286  6.58735795454545 13.3738839285714  C 6.43821022727273 13.5279017857143  6.36363636363636 13.7247023809524  6.36363636363636 13.9642857142857  L 6.36363636363636 15.6071428571429  C 6.36363636363636 15.8467261904762  6.43821022727273 16.0435267857143  6.58735795454545 16.1975446428571  C 6.73650568181818 16.3515625  6.92708333333333 16.4285714285714  7.15909090909091 16.4285714285714  L 8.75 16.4285714285714  C 8.98200757575758 16.4285714285714  9.17258522727273 16.3515625  9.32173295454546 16.1975446428571  Z M 9.32173295454546 9.62611607142857  C 9.47088068181818 9.47209821428572  9.54545454545455 9.27529761904762  9.54545454545455 9.03571428571428  L 9.54545454545455 7.39285714285714  C 9.54545454545455 7.15327380952381  9.47088068181818 6.95647321428572  9.32173295454546 6.80245535714286  C 9.17258522727273 6.6484375  8.98200757575758 6.57142857142857  8.75 6.57142857142857  L 7.15909090909091 6.57142857142857  C 6.92708333333333 6.57142857142857  6.73650568181818 6.6484375  6.58735795454545 6.80245535714286  C 6.43821022727273 6.95647321428572  6.36363636363636 7.15327380952381  6.36363636363636 7.39285714285714  L 6.36363636363636 9.03571428571428  C 6.36363636363636 9.27529761904762  6.43821022727273 9.47209821428572  6.58735795454545 9.62611607142857  C 6.73650568181818 9.78013392857143  6.92708333333333 9.85714285714286  7.15909090909091 9.85714285714286  L 8.75 9.85714285714286  C 8.98200757575758 9.85714285714286  9.17258522727273 9.78013392857143  9.32173295454546 9.62611607142857  Z M 22.0490056818182 42.4832589285714  C 22.1981534090909 42.3292410714286  22.2727272727273 42.1324404761905  22.2727272727273 41.8928571428571  L 22.2727272727273 36.9642857142857  C 22.2727272727273 36.7247023809524  22.1981534090909 36.5279017857143  22.0490056818182 36.3738839285714  C 21.8998579545455 36.2198660714286  21.7092803030303 36.1428571428571  21.4772727272727 36.1428571428571  L 13.5227272727273 36.1428571428571  C 13.2907196969697 36.1428571428571  13.1001420454545 36.2198660714286  12.9509943181818 36.3738839285714  C 12.8018465909091 36.5279017857143  12.7272727272727 36.7247023809524  12.7272727272727 36.9642857142857  L 12.7272727272727 41.8928571428571  C 12.7272727272727 42.1324404761905  12.8018465909091 42.3292410714286  12.9509943181818 42.4832589285714  C 13.1001420454545 42.6372767857143  13.2907196969697 42.7142857142857  13.5227272727273 42.7142857142857  L 21.4772727272727 42.7142857142857  C 21.7092803030303 42.7142857142857  21.8998579545455 42.6372767857143  22.0490056818182 42.4832589285714  Z M 22.0490056818182 29.3404017857143  C 22.1981534090909 29.1863839285714  22.2727272727273 28.9895833333333  22.2727272727273 28.75  L 22.2727272727273 27.1071428571429  C 22.2727272727273 26.8675595238095  22.1981534090909 26.6707589285714  22.0490056818182 26.5167410714286  C 21.8998579545455 26.3627232142857  21.7092803030303 26.2857142857143  21.4772727272727 26.2857142857143  L 19.8863636363636 26.2857142857143  C 19.6543560606061 26.2857142857143  19.4637784090909 26.3627232142857  19.3146306818182 26.5167410714286  C 19.1654829545455 26.6707589285714  19.0909090909091 26.8675595238095  19.0909090909091 27.1071428571429  L 19.0909090909091 28.75  C 19.0909090909091 28.9895833333333  19.1654829545455 29.1863839285714  19.3146306818182 29.3404017857143  C 19.4637784090909 29.4944196428571  19.6543560606061 29.5714285714286  19.8863636363636 29.5714285714286  L 21.4772727272727 29.5714285714286  C 21.7092803030303 29.5714285714286  21.8998579545455 29.4944196428571  22.0490056818182 29.3404017857143  Z M 22.0490056818182 22.7689732142857  C 22.1981534090909 22.6149553571429  22.2727272727273 22.4181547619048  22.2727272727273 22.1785714285714  L 22.2727272727273 20.5357142857143  C 22.2727272727273 20.2961309523809  22.1981534090909 20.0993303571429  22.0490056818182 19.9453125  C 21.8998579545455 19.7912946428571  21.7092803030303 19.7142857142857  21.4772727272727 19.7142857142857  L 19.8863636363636 19.7142857142857  C 19.6543560606061 19.7142857142857  19.4637784090909 19.7912946428571  19.3146306818182 19.9453125  C 19.1654829545455 20.0993303571429  19.0909090909091 20.2961309523809  19.0909090909091 20.5357142857143  L 19.0909090909091 22.1785714285714  C 19.0909090909091 22.4181547619048  19.1654829545455 22.6149553571429  19.3146306818182 22.7689732142857  C 19.4637784090909 22.9229910714286  19.6543560606061 23  19.8863636363636 23  L 21.4772727272727 23  C 21.7092803030303 23  21.8998579545455 22.9229910714286  22.0490056818182 22.7689732142857  Z M 22.0490056818182 16.1975446428571  C 22.1981534090909 16.0435267857143  22.2727272727273 15.8467261904762  22.2727272727273 15.6071428571429  L 22.2727272727273 13.9642857142857  C 22.2727272727273 13.7247023809524  22.1981534090909 13.5279017857143  22.0490056818182 13.3738839285714  C 21.8998579545455 13.2198660714286  21.7092803030303 13.1428571428571  21.4772727272727 13.1428571428571  L 19.8863636363636 13.1428571428571  C 19.6543560606061 13.1428571428571  19.4637784090909 13.2198660714286  19.3146306818182 13.3738839285714  C 19.1654829545455 13.5279017857143  19.0909090909091 13.7247023809524  19.0909090909091 13.9642857142857  L 19.0909090909091 15.6071428571429  C 19.0909090909091 15.8467261904762  19.1654829545455 16.0435267857143  19.3146306818182 16.1975446428571  C 19.4637784090909 16.3515625  19.6543560606061 16.4285714285714  19.8863636363636 16.4285714285714  L 21.4772727272727 16.4285714285714  C 21.7092803030303 16.4285714285714  21.8998579545455 16.3515625  22.0490056818182 16.1975446428571  Z M 22.0490056818182 9.62611607142857  C 22.1981534090909 9.47209821428572  22.2727272727273 9.27529761904762  22.2727272727273 9.03571428571428  L 22.2727272727273 7.39285714285714  C 22.2727272727273 7.15327380952381  22.1981534090909 6.95647321428572  22.0490056818182 6.80245535714286  C 21.8998579545455 6.6484375  21.7092803030303 6.57142857142857  21.4772727272727 6.57142857142857  L 19.8863636363636 6.57142857142857  C 19.6543560606061 6.57142857142857  19.4637784090909 6.6484375  19.3146306818182 6.80245535714286  C 19.1654829545455 6.95647321428572  19.0909090909091 7.15327380952381  19.0909090909091 7.39285714285714  L 19.0909090909091 9.03571428571428  C 19.0909090909091 9.27529761904762  19.1654829545455 9.47209821428572  19.3146306818182 9.62611607142857  C 19.4637784090909 9.78013392857143  19.6543560606061 9.85714285714286  19.8863636363636 9.85714285714286  L 21.4772727272727 9.85714285714286  C 21.7092803030303 9.85714285714286  21.8998579545455 9.78013392857143  22.0490056818182 9.62611607142857  Z M 28.4126420454545 35.9118303571429  C 28.5617897727273 35.7578125  28.6363636363636 35.5610119047619  28.6363636363636 35.3214285714286  L 28.6363636363636 33.6785714285714  C 28.6363636363636 33.4389880952381  28.5617897727273 33.2421875  28.4126420454545 33.0881696428571  C 28.2634943181818 32.9341517857143  28.0729166666667 32.8571428571429  27.8409090909091 32.8571428571429  L 26.25 32.8571428571429  C 26.0179924242424 32.8571428571429  25.8274147727273 32.9341517857143  25.6782670454545 33.0881696428571  C 25.5291193181818 33.2421875  25.4545454545455 33.4389880952381  25.4545454545455 33.6785714285714  L 25.4545454545455 35.3214285714286  C 25.4545454545455 35.5610119047619  25.5291193181818 35.7578125  25.6782670454545 35.9118303571429  C 25.8274147727273 36.0658482142857  26.0179924242424 36.1428571428571  26.25 36.1428571428571  L 27.8409090909091 36.1428571428571  C 28.0729166666667 36.1428571428571  28.2634943181818 36.0658482142857  28.4126420454545 35.9118303571429  Z M 28.4126420454545 29.3404017857143  C 28.5617897727273 29.1863839285714  28.6363636363636 28.9895833333333  28.6363636363636 28.75  L 28.6363636363636 27.1071428571429  C 28.6363636363636 26.8675595238095  28.5617897727273 26.6707589285714  28.4126420454545 26.5167410714286  C 28.2634943181818 26.3627232142857  28.0729166666667 26.2857142857143  27.8409090909091 26.2857142857143  L 26.25 26.2857142857143  C 26.0179924242424 26.2857142857143  25.8274147727273 26.3627232142857  25.6782670454545 26.5167410714286  C 25.5291193181818 26.6707589285714  25.4545454545455 26.8675595238095  25.4545454545455 27.1071428571429  L 25.4545454545455 28.75  C 25.4545454545455 28.9895833333333  25.5291193181818 29.1863839285714  25.6782670454545 29.3404017857143  C 25.8274147727273 29.4944196428571  26.0179924242424 29.5714285714286  26.25 29.5714285714286  L 27.8409090909091 29.5714285714286  C 28.0729166666667 29.5714285714286  28.2634943181818 29.4944196428571  28.4126420454545 29.3404017857143  Z M 28.4126420454545 22.7689732142857  C 28.5617897727273 22.6149553571429  28.6363636363636 22.4181547619048  28.6363636363636 22.1785714285714  L 28.6363636363636 20.5357142857143  C 28.6363636363636 20.2961309523809  28.5617897727273 20.0993303571429  28.4126420454545 19.9453125  C 28.2634943181818 19.7912946428571  28.0729166666667 19.7142857142857  27.8409090909091 19.7142857142857  L 26.25 19.7142857142857  C 26.0179924242424 19.7142857142857  25.8274147727273 19.7912946428571  25.6782670454545 19.9453125  C 25.5291193181818 20.0993303571429  25.4545454545455 20.2961309523809  25.4545454545455 20.5357142857143  L 25.4545454545455 22.1785714285714  C 25.4545454545455 22.4181547619048  25.5291193181818 22.6149553571429  25.6782670454545 22.7689732142857  C 25.8274147727273 22.9229910714286  26.0179924242424 23  26.25 23  L 27.8409090909091 23  C 28.0729166666667 23  28.2634943181818 22.9229910714286  28.4126420454545 22.7689732142857  Z M 28.4126420454545 16.1975446428571  C 28.5617897727273 16.0435267857143  28.6363636363636 15.8467261904762  28.6363636363636 15.6071428571429  L 28.6363636363636 13.9642857142857  C 28.6363636363636 13.7247023809524  28.5617897727273 13.5279017857143  28.4126420454545 13.3738839285714  C 28.2634943181818 13.2198660714286  28.0729166666667 13.1428571428571  27.8409090909091 13.1428571428571  L 26.25 13.1428571428571  C 26.0179924242424 13.1428571428571  25.8274147727273 13.2198660714286  25.6782670454545 13.3738839285714  C 25.5291193181818 13.5279017857143  25.4545454545455 13.7247023809524  25.4545454545455 13.9642857142857  L 25.4545454545455 15.6071428571429  C 25.4545454545455 15.8467261904762  25.5291193181818 16.0435267857143  25.6782670454545 16.1975446428571  C 25.8274147727273 16.3515625  26.0179924242424 16.4285714285714  26.25 16.4285714285714  L 27.8409090909091 16.4285714285714  C 28.0729166666667 16.4285714285714  28.2634943181818 16.3515625  28.4126420454545 16.1975446428571  Z M 28.4126420454545 9.62611607142857  C 28.5617897727273 9.47209821428572  28.6363636363636 9.27529761904762  28.6363636363636 9.03571428571428  L 28.6363636363636 7.39285714285714  C 28.6363636363636 7.15327380952381  28.5617897727273 6.95647321428572  28.4126420454545 6.80245535714286  C 28.2634943181818 6.6484375  28.0729166666667 6.57142857142857  27.8409090909091 6.57142857142857  L 26.25 6.57142857142857  C 26.0179924242424 6.57142857142857  25.8274147727273 6.6484375  25.6782670454545 6.80245535714286  C 25.5291193181818 6.95647321428572  25.4545454545455 7.15327380952381  25.4545454545455 7.39285714285714  L 25.4545454545455 9.03571428571428  C 25.4545454545455 9.27529761904762  25.5291193181818 9.47209821428572  25.6782670454545 9.62611607142857  C 25.8274147727273 9.78013392857143  26.0179924242424 9.85714285714286  26.25 9.85714285714286  L 27.8409090909091 9.85714285714286  C 28.0729166666667 9.85714285714286  28.2634943181818 9.78013392857143  28.4126420454545 9.62611607142857  Z " fill-rule="nonzero" fill="#bbbbbb" stroke="none" transform="matrix(1 0 0 1 804 492 )" />
  </g>
</svg>